<svg id="Layer_1" data-name="Layer 1" xmlns="http://www.w3.org/2000/svg" viewBox="0 0 220 130"><defs><style>.cls-1{fill:#00aa13;}.cls-2{fill:#fff;}</style></defs><title>paymentArtboard 2 copy 68</title><circle class="cls-1" cx="58.15" cy="59" r="12"/><path class="cls-2" d="M64.56,56.16A1.58,1.58,0,0,0,63.89,55c-.38-.27-.77-.54-1.17-.79-1.58.72-3.59,1.76-5.22,2.61a1.75,1.75,0,0,0-.94,1.5q0,1.23,0,2.46l-1.24-2-1.23.81c0-.78,0-1.56.07-2.34a1.77,1.77,0,0,1,.94-1.45c1.71-.9,3.82-2,5.45-2.82-.55-.28-1.11-.56-1.67-.8a1.55,1.55,0,0,0-1.25,0,27.8,27.8,0,0,0-5.11,2.73A1.53,1.53,0,0,0,51.81,56a35.51,35.51,0,0,0-.11,5.36,1.52,1.52,0,0,0,.57,1.11,25.17,25.17,0,0,0,5.06,3.37,1.64,1.64,0,0,0,1.42,0,33.92,33.92,0,0,0,5.14-3.19,1.59,1.59,0,0,0,.64-1.14A36.61,36.61,0,0,0,64.56,56.16Z"/><path d="M104.92,57.65a3.81,3.81,0,1,0-3.8,3.78,3.62,3.62,0,0,0,3.8-3.78m-11.34,0c0-4,3.15-7,7.54-7s7.53,3.07,7.53,7-3.12,7.06-7.53,7.06-7.54-3.07-7.54-7.06"/><path d="M87.6,58.38c0,1.65-1.67,3-3.8,3a3.56,3.56,0,0,1-3.91-3.78c0-2.18,1.6-3.68,4.06-3.68,2,0,3.65,1.37,3.65,2.92Zm.15-7.79v1.58h0a6,6,0,0,0-4.46-1.57,6.88,6.88,0,0,0-7.1,7,7,7,0,0,0,7.22,7.08A5.73,5.73,0,0,0,87.7,63h0v1.35c0,1.83-1.57,3.17-3.65,3.17A5.74,5.74,0,0,1,79.72,66l-2.43,2.34A9.33,9.33,0,0,0,84.18,71c4.26,0,7.18-2.86,7.18-6.67V50.59Z"/><path d="M113.61,59.16c.53,1.71,1.89,2.57,4,2.57,1.94,0,3-.43,3-1.16s-.81-1.14-3.3-1.51c-4.89-.76-6.63-1.94-6.63-4.34s2.47-4.13,6.15-4.13c3.35,0,6.4,1.71,7.1,4l-3.4,1a3.78,3.78,0,0,0-3.73-2.1c-1.53,0-2.54.46-2.54,1.16s.7,1,3.65,1.46c4.51.71,6.3,1.94,6.3,4.36s-2.67,4.16-6.68,4.16a9.19,9.19,0,0,1-5-1.29A5.28,5.28,0,0,1,110.11,60Z"/><path d="M132.75,50.59A6.91,6.91,0,0,1,140,57.77v1.06H129.18c.12,1.74,1.56,2.85,3.77,2.85a5.32,5.32,0,0,0,4.11-2L139.38,62a8.16,8.16,0,0,1-6.4,2.7c-4.66,0-7.48-2.8-7.48-7A6.93,6.93,0,0,1,132.75,50.59Zm3.63,5.62c-.18-1.59-1.56-2.6-3.55-2.6s-3.4,1-3.6,2.6Z"/><path d="M142,51h3.6v1.26h.05a6.61,6.61,0,0,1,4.51-1.64c3.78,0,6.4,2.5,6.4,6.12v7.61h-3.73V57.19c0-2-1.33-3.27-3.47-3.27s-3.63,1.33-3.63,3.27v7.13H142Z"/><path d="M165.53,50.59A6.37,6.37,0,0,1,169.86,52h0v-6.1h3.73V64.32h-3.45V63h-.05a5.89,5.89,0,0,1-4.51,1.69,6.87,6.87,0,0,1-7.23-7.05A7,7,0,0,1,165.53,50.59Zm4.38,6.17c0-1.58-1.76-2.89-3.8-2.89a3.7,3.7,0,0,0-4,3.78c0,2.29,1.56,3.75,4,3.75,2.12,0,3.8-1.31,3.8-2.95Z"/></svg>