<?xml version="1.0" encoding="UTF-8" standalone="no"?>
<!-- Created with Inkscape (http://www.inkscape.org/) -->

<svg
   xmlns:dc="http://purl.org/dc/elements/1.1/"
   xmlns:cc="http://creativecommons.org/ns#"
   xmlns:rdf="http://www.w3.org/1999/02/22-rdf-syntax-ns#"
   xmlns:svg="http://www.w3.org/2000/svg"
   xmlns="http://www.w3.org/2000/svg"
   xmlns:sodipodi="http://sodipodi.sourceforge.net/DTD/sodipodi-0.dtd"
   xmlns:inkscape="http://www.inkscape.org/namespaces/inkscape"
   version="1.1"
   id="svg2"
   width="1233.9194"
   height="251.74188"
   viewBox="0 0 1233.9194 251.74188"
   sodipodi:docname="logo-tiki.svg"
   inkscape:version="0.92.3 (2405546, 2018-03-11)">
  <metadata
     id="metadata8">
    <rdf:RDF>
      <cc:Work
         rdf:about="">
        <dc:format>image/svg+xml</dc:format>
        <dc:type
           rdf:resource="http://purl.org/dc/dcmitype/StillImage" />
        <dc:title></dc:title>
      </cc:Work>
    </rdf:RDF>
  </metadata>
  <defs
     id="defs6" />
  <sodipodi:namedview
     pagecolor="#ffffff"
     bordercolor="#666666"
     borderopacity="1"
     objecttolerance="10"
     gridtolerance="10"
     guidetolerance="10"
     inkscape:pageopacity="0"
     inkscape:pageshadow="2"
     inkscape:window-width="640"
     inkscape:window-height="480"
     id="namedview4"
     showgrid="false"
     inkscape:zoom="0.23014587"
     inkscape:cx="616.90512"
     inkscape:cy="134.55634"
     inkscape:window-x="0"
     inkscape:window-y="0"
     inkscape:window-maximized="0"
     inkscape:current-layer="svg2" />
  <g
     id="g12"
     transform="translate(-0.09487996,-0.1243242)">
    <path
       style="fill:#f69fa3"
       d="M 129.83792,250.48436 C 94.727803,245.36592 60.514259,219.77406 42.718925,185.31902 34.736986,169.86451 28.107703,146.81163 31.100499,144.91673 c 1.750851,-1.10856 7.971128,-1.15796 9.674686,-0.0768 0.701351,0.4451 2.387959,4.96735 3.748017,10.04945 10.951282,40.92138 40.638728,71.19639 80.270988,81.85969 8.7193,2.34598 11.48452,2.6114 27.20581,2.6114 15.72129,0 18.48651,-0.26542 27.20581,-2.6114 44.0051,-11.83984 76.29557,-48.97825 82.72429,-95.14416 0.52809,-3.79233 1.37208,-7.30705 1.87552,-7.81049 0.50345,-0.50345 3.11564,-0.77564 5.80487,-0.60487 4.58233,0.29098 4.91052,0.49499 5.22396,3.2473 0.4657,4.08936 -2.61723,20.59311 -5.50359,29.46213 -12.25933,37.66975 -42.03893,68.23329 -78.64278,80.71304 -14.76502,5.03399 -41.29914,6.72257 -60.85016,3.87238 z m 3.50365,-16.89909 C 107.65723,228.69231 83.83068,213.84841 68.054089,192.91129 60.869445,183.37655 53.883997,169.6874 50.437914,158.38946 47.493488,148.7362 47.511527,144.62639 50.5,144.24427 c 3.336553,-0.42662 4.467533,1.08741 6.597493,8.83198 2.842865,10.33671 11.752775,28.13627 18.087531,36.13394 2.923237,3.6906 5.777021,6.90043 6.341744,7.13295 0.564722,0.23252 3.894339,-2.14207 7.39915,-5.27688 l 6.372382,-5.69964 -3.354818,-8.43331 C 90.098333,172.29499 87.64621,167.375 86.494321,166 81.613229,160.17348 81.58945,160.11113 83.459949,158.04426 85.837884,155.41667 84.622976,154 79.991669,154 c -3.097554,0 -4.511006,-0.66227 -6.936356,-3.25 -3.595354,-3.83607 -3.832143,-5.52708 -0.924558,-6.60267 2.037168,-0.75359 1.956126,-0.97179 -1.845164,-4.96777 C 65.595469,134.24922 68.685185,134.4657 31.5,136.46201 3.9840522,137.93921 0.94410929,137.66385 0.16604941,133.62371 -0.36116351,130.88611 3.8585972,123.33134 7.8938914,119.7883 14.792636,113.73112 21.289592,111.53877 33.5,111.14768 c 6.05,-0.19377 16.555169,0.19065 23.344819,0.85427 l 12.34482,1.20658 3.464887,-3.35427 c 3.405438,-3.29671 3.429548,-3.3778 1.405181,-4.72623 -2.770637,-1.84552 -2.597031,-3.04486 0.995606,-6.87803 2.276214,-2.428612 3.902904,-3.25 6.436356,-3.25 3.852054,0 5.242664,-1.410257 3.48224,-3.531438 -0.960017,-1.156749 -0.608246,-2.39074 1.769187,-6.206195 1.632102,-2.619302 4.2439,-7.84412 5.803995,-11.610707 L 95.383627,66.80332 88.941814,60.989939 82.5,55.176558 79.648218,57.838279 C 72.16229,64.825298 63.33838,80.269333 58.558802,94.75 55.854566,102.94301 55.812145,103 52.417878,103 49.412714,103 49,102.68922 49,100.42632 c 0,-3.970585 4.691362,-17.027058 9.310631,-25.912309 13.89252,-26.72252 37.813148,-46.068069 66.882949,-54.090855 13.79654,-3.80762 32.59518,-4.392419 46.79864,-1.45584 34.43268,7.11899 63.15159,30.647062 77.20916,63.253907 4.3532,10.097325 7.57495,22.476667 8.01024,30.778777 L 257.5,118.5 H 254 c -3.41937,0 -3.51969,-0.11518 -4.35471,-5 -3.8426,-22.478893 -12.07756,-41.010785 -24.17323,-54.399249 l -3.68705,-4.081123 -6.39251,5.612307 C 211.87663,63.718704 209,66.802046 209,67.483806 c 0,0.68176 1.36948,4.259886 3.04329,7.951392 5.46692,12.057032 11.52511,40.396402 9.14455,42.776962 -0.51931,0.51931 -2.23652,0.79652 -3.81602,0.61602 -2.81649,-0.32186 -2.89596,-0.50158 -4.12453,-9.32818 C 211.32441,95.685194 203.92568,72 201.53313,72 c -0.31764,0 -4.19874,1.820712 -8.62467,4.046027 -7.56163,3.801912 -8.01247,4.20917 -7.47231,6.75 1.64924,7.757717 3.55277,23.515793 3.55795,29.453973 L 189,119 h -2.98095 c -3.49525,0 -3.61805,-0.36811 -4.50334,-13.5 -0.5692,-8.443215 -2.7093,-22.02692 -3.61263,-22.930252 -0.22317,-0.223176 -2.88017,0.250434 -5.90443,1.052466 -11.78645,3.125762 -27.52312,2.822113 -45.19434,-0.872055 -1.53205,-0.320274 -3.50507,9.690562 -4.40322,22.341281 l -0.68095,9.59143 7.79081,0.65857 C 133.79589,115.70365 140.74017,116 144.94267,116 h 7.64091 L 157,111.5 c 4.02472,-4.10089 4.84419,-4.5 9.23959,-4.5 3.24165,0 5.00167,0.46514 5.36752,1.41852 0.29938,0.78019 -1.51474,4.48789 -4.03139,8.23933 -2.51664,3.75144 -4.57144,7.2756 -4.56622,7.83147 0.005,0.55588 1.83087,3.88182 4.05698,7.391 2.22612,3.50917 3.81097,6.99667 3.52189,7.75 -0.33536,0.87392 -2.1266,1.36968 -4.94883,1.36968 -3.85161,0 -5.08771,-0.59743 -9.56499,-4.62288 l -5.14175,-4.62288 -14.7164,0.87288 L 121.5,133.5 l 0.31928,7 c 0.39087,8.56961 3.06472,27.74617 3.99935,28.68289 0.37476,0.3756 3.60637,-0.0386 7.18137,-0.92054 4.21215,-1.03906 10.8997,-1.60343 19,-1.60343 8.1003,0 14.78785,0.56437 19,1.60343 3.575,0.88189 6.77402,1.29614 7.10894,0.92054 0.89576,-1.00455 2.72647,-13.43134 3.4153,-23.18289 0.89366,-12.65137 1.06976,-13.18097 4.26064,-12.81306 2.60261,0.30009 2.72765,0.57946 3.01749,6.74216 0.26729,5.68327 -1.80989,23.78125 -3.41558,29.75921 -0.51538,1.91872 0.40742,2.68869 7.49051,6.25 4.44307,2.23393 8.34152,4.06169 8.66322,4.06169 1.15319,0 6.43942,-12.97669 8.41751,-20.66337 1.10917,-4.31015 2.58487,-11.88663 3.27932,-16.83663 l 1.26265,-9 3.25688,-0.31387 c 4.27561,-0.41205 4.66906,0.85915 3.24739,10.49185 -1.70115,11.5264 -4.68002,22.57408 -8.80879,32.66908 l -3.6607,8.95054 6.44765,5.83894 6.44766,5.83894 3.36043,-3.23774 c 1.84824,-1.78076 5.29892,-6.16274 7.66818,-9.73774 8.69318,-13.11722 13.34019,-24.80439 16.35345,-41.1287 l 1.72982,-9.3713 3.23589,-0.31387 c 4.41646,-0.42838 4.78688,1.11599 2.83139,11.80455 -5.51651,30.15267 -22.20685,55.97427 -46.7201,72.28059 -18.06084,12.01415 -32.90563,16.68879 -54.88915,17.28468 -9.64877,0.26153 -16.89498,-0.0632 -21.65843,-0.97068 z m 35.29902,-8.08082 c 4.29909,-0.82255 9.99214,-2.21817 12.65122,-3.10137 4.55225,-1.51202 4.7401,-1.71034 3.21561,-3.39488 -2.40365,-2.65601 -12.19443,-7.5961 -18.87949,-9.52594 -4.38251,-1.26514 -8.56805,-1.59928 -16.5,-1.31721 -9.49278,0.33758 -11.37559,0.72859 -17.62793,3.6609 -7.53797,3.53526 -13.48216,7.23365 -13.49317,8.39527 -0.009,0.90101 12.17114,4.64324 18.65292,5.73115 8.07181,1.35478 23.70323,1.13585 31.98084,-0.44792 z m -56.18259,-11.88114 2.95801,-2.36675 -4.77228,-5.30793 c -2.62476,-2.91935 -5.98086,-7.01747 -7.45801,-9.10692 -1.47714,-2.08946 -3.05668,-3.80862 -3.510067,-3.82036 -0.45339,-0.0117 -3.134438,2.18232 -5.957884,4.8757 -4.524161,4.31575 -4.970647,5.09332 -3.761308,6.55049 2.04335,2.46208 16.212269,11.55323 17.997239,11.54749 0.85047,-0.003 2.8774,-1.07 4.5043,-2.37172 z m 93.147,-3.16446 c 4.5803,-3.04763 8.63736,-6.04198 9.01567,-6.6541 0.66777,-1.08047 -8.6116,-10.81188 -10.29632,-10.79792 -0.45339,0.004 -1.81796,1.46626 -3.03237,3.25 -1.21441,1.78374 -4.47691,5.69799 -7.25,8.69832 -2.77309,3.00033 -5.04198,5.7753 -5.04198,6.16659 0,1.07707 5.3064,4.81048 6.88858,4.84658 0.76372,0.0174 5.13611,-2.46184 9.71642,-5.50947 z m -78.15205,-5.61937 C 128.85383,204.2012 130,203.36458 130,202.98032 c 0,-0.38426 -1.54003,-4.03184 -3.42228,-8.10573 -1.88225,-4.07389 -3.73017,-8.63381 -4.10648,-10.13316 -0.58198,-2.31878 -1.07918,-2.64261 -3.32772,-2.16739 C 114.99423,183.45096 107,187.23791 107,188.32655 107,191.22457 120.51462,206 123.16536,206 c 0.95729,0 2.88671,-0.52223 4.28759,-1.16052 z m 57.88303,-1.82962 c 4.9288,-4.32753 11.9489,-13.7399 11.17803,-14.98719 -0.99097,-1.60343 -12.46057,-7.17373 -13.47729,-6.54536 -0.48609,0.30042 -1.65543,2.90342 -2.59854,5.78445 -0.9431,2.88103 -2.77751,7.36078 -4.07646,9.955 -2.90718,5.80613 -2.91317,6.21166 -0.11172,7.56275 3.64057,1.75578 5.47844,1.39782 9.08598,-1.76965 z m -15.55997,-7.55834 c 3.12579,-6.15054 6.34886,-15.44046 5.71358,-16.46837 -2.10877,-3.41206 -33.38294,-4.7385 -42.48959,-1.80212 -3.95378,1.27488 -4.46647,1.76783 -4.22372,4.06117 0.2942,2.77952 5.62662,16.33326 7.1467,18.16521 0.58912,0.70999 6.24137,1.06208 16.14123,1.00545 l 15.23465,-0.0871 2.47715,-4.87421 z m -65.26505,-16.46926 c 0.67749,-1.0962 -5.411666,-9.41489 -6.266114,-8.56044 -0.282728,0.28273 0.07194,1.99098 0.78815,3.79612 2.160984,5.44653 4.044114,7.08434 5.477964,4.76432 z m 13.80621,-8.59249 c -0.10055,-1.03937 -0.88805,-6.67252 -1.75,-12.51811 C 115.70523,152.02608 115,145.19287 115,142.68676 c 0,-2.50611 -0.395,-5.59836 -0.87777,-6.87166 -0.84956,-2.24071 -1.20301,-2.30493 -11,-1.99869 C 97.555004,133.99044 93,134.53513 93,135.02684 c 0,0.85186 20.13282,34.07258 22.2756,36.75646 1.4058,1.76081 3.26436,0.90928 3.04157,-1.39353 z M 113.8,113.8 c 0.66,-0.66 1.2,-2.96475 1.2,-5.12166 0,-2.15692 0.73715,-8.704417 1.63812,-14.550002 2.04954,-13.297755 2.10601,-14.340428 0.80139,-14.797292 C 116.53278,79.013519 96.493899,109.67184 95.759628,112.5 c -0.146781,0.56535 3.000227,1.24768 7.240372,1.56984 4.125,0.31341 7.9725,0.65091 8.55,0.75 0.5775,0.0991 1.59,-0.35984 2.25,-1.01984 z M 102.30187,77.488399 C 104.89853,74.234031 105.16695,72 102.96131,72 102.14677,72 98,79.07119 98,80.460162 c 0,1.427059 1.764779,0.207935 4.30187,-2.971763 z m 68.912,-2.460449 c 2.04262,-0.606102 3.94905,-1.482545 4.2365,-1.94765 0.67122,-1.086061 -2.45843,-10.189117 -5.70808,-16.602776 L 167.2203,51.5 l -15.23084,0.126738 -15.23084,0.126737 -1.7851,2.873263 c -2.20922,3.555907 -7.43871,18.24141 -6.74336,18.936756 0.27989,0.279888 3.3801,1.162147 6.88936,1.960575 7.28367,1.657182 29.88442,1.346533 36.09435,-0.496119 z m 18.7418,-7.005572 c 3.24425,-1.637692 6.1883,-3.446314 6.54234,-4.019159 0.79227,-1.281926 -8.54337,-13.18727 -12.61352,-16.085469 -2.91897,-2.078491 -5.61202,-2.088839 -8.7702,-0.0337 -1.13315,0.737381 -0.71177,2.516017 2.31198,9.758839 2.03373,4.87141 4.11016,9.869609 4.61427,11.107109 0.50412,1.2375 1.16406,2.25 1.46654,2.25 0.30247,0 3.20434,-1.33993 6.44859,-2.977622 z M 118.61317,66 c 3.346,0 4.59612,-0.43404 5.04035,-1.75 0.32492,-0.9625 1.96847,-4.822344 3.65235,-8.577432 2.56642,-5.723197 2.8297,-6.978073 1.62786,-7.758839 -2.97225,-1.930889 -5.98336,-2.11123 -8.43453,-0.50516 C 117.4973,49.37549 107,61.92104 107,63.541756 c 0,1.453919 4.06041,3.466877 5.83179,2.89112 C 113.56427,66.194794 116.16589,66 118.61317,66 Z M 105,52.857929 c 2.475,-3.333904 5.7375,-7.111756 7.25,-8.395226 C 113.7625,43.179232 115,41.734694 115,41.252619 115,40.116664 109.43697,36 107.90191,36 c -1.29024,0 -17.50408,10.547281 -18.371569,11.950906 -0.295256,0.477736 -0.275502,1.471719 0.0439,2.208852 0.659564,1.522183 9.203149,8.861433 10.244068,8.800028 C 100.19324,58.937668 102.525,56.191833 105,52.857929 Z m 105.04284,1.505229 C 212.76928,51.812895 215,49.360632 215,48.913684 c 0,-1.07967 -11.53451,-9.25981 -16.15149,-11.454454 -3.56028,-1.692348 -3.72889,-1.680592 -6.75,0.470627 C 190.39433,39.143339 189,40.596635 189,41.159403 c 0,0.562768 2.25957,3.330745 5.02126,6.151059 2.7617,2.820315 6.0242,6.601151 7.25,8.401859 1.22581,1.800707 2.58552,3.277088 3.02158,3.280846 0.43606,0.0038 3.02356,-2.079746 5.75,-4.630009 z M 165,42.797755 c 6.01726,-1.403017 16.31455,-6.43923 18.99094,-9.288116 l 2.15969,-2.298876 -5.04876,-1.676928 C 168.84626,25.463177 152.41079,24.128469 138.45053,26.070163 130.1338,27.226914 118,30.630248 118,31.806205 c 0,1.218074 9.49022,7.022044 15.09287,9.230402 9.78143,3.855479 20.40912,4.442086 31.90713,1.761148 z M 884.19416,228.25776 C 883.06855,227.29099 872.38639,210.525 860.45602,191 c -11.93037,-19.525 -21.86358,-35.6875 -22.0738,-35.91667 -1.0162,-1.10778 -1.90955,3.08897 -7.46222,35.05573 -3.28269,18.89852 -6.39797,35.37344 -6.92283,36.61094 l -0.95429,2.25 h -50.46242 c -30.14972,0 -50.69455,-0.37559 -51.03909,-0.93307 -0.79898,-1.29277 35.35088,-207.232175 36.65198,-208.799902 1.52639,-1.839183 101.3728,-1.855841 102.05944,-0.01703 0.25673,0.6875 -2.60367,18.575 -6.35644,39.75 -7.64622,43.143852 -7.16596,40 -6.11056,40 0.43219,0 10.41986,-10.0125 22.19483,-22.25 11.77497,-12.2375 28.72639,-29.7875 37.66982,-39 L 923.91122,21 h 59.11771 c 52.02367,0 59.07887,0.179982 58.79437,1.499858 -0.1778,0.824922 -22.3217,23.799808 -49.20862,51.055302 -44.4905,45.10038 -48.79524,49.75275 -47.88338,51.75014 0.55107,1.20709 14.80742,24.42231 31.68078,51.5894 16.87336,27.16708 30.53972,50.11708 30.36982,51 -0.279,1.44908 -6.1595,1.63038 -60.42513,1.86306 -56.12929,0.24066 -60.25176,0.14119 -62.16261,-1.5 z M 399,226.95333 c 0,-1.12567 5.85526,-34.76244 13.01168,-74.74838 7.15642,-39.98593 12.79554,-73.264931 12.53138,-73.953325 C 424.17255,77.286076 416.85584,77 392.53138,77 H 361 l 0.0438,-2.75 c 0.10729,-6.738423 9.678,-56.461045 11.03278,-57.318482 0.82235,-0.520466 48.77241,-0.907359 113.55099,-0.916205 91.158,-0.01245 112.3306,0.229345 113.21328,1.29291 0.79745,0.960871 -0.29872,8.727174 -4.1285,29.25 C 591.84452,61.9262 589.13449,75.0625 588.69004,75.75 588.07421,76.702626 580.99184,77 558.91954,77 h -28.96242 l -0.93532,2.25 c -0.51443,1.2375 -6.8154,35.04765 -14.00215,75.13366 -7.18676,40.08602 -13.30778,73.27352 -13.60226,73.75 C 501.12291,228.61015 477.95852,229 449.94098,229 399.27945,229 399,228.98877 399,226.95333 Z M 590.77062,227.75 C 590.3682,226.61539 614.42338,78.180238 615.48455,75.25 615.80572,74.363157 618.8516,74 625.96862,74 631.8508,74 636,73.594785 636,73.020324 c 0,-0.538822 -1.9125,-1.95375 -4.25,-3.144285 -10.1104,-5.149426 -16.72214,-13.565985 -16.74062,-21.310315 -0.0277,-11.628923 12.36611,-22.448795 31.84709,-27.802632 6.27848,-1.725474 10.50096,-2.102298 23.64353,-2.11 14.61067,-0.0086 16.78102,0.228945 24.99442,2.735216 21.67665,6.614503 32.61951,18.327843 29.32977,31.39487 -1.41477,5.619536 -8.22145,13.132495 -15.2156,16.7944 -3.00175,1.57162 -5.24012,3.209601 -4.97415,3.639957 C 704.90042,73.647891 707.96833,74 711.45203,74 c 4.15392,0 6.49314,0.430232 6.79638,1.25 0.39771,1.075169 -23.05551,144.86099 -24.69239,151.38282 L 692.9619,229 h -50.87396 c -39.79605,0 -50.9705,-0.27219 -51.31732,-1.25 z M 1031,226.61676 c 0,-2.20252 23.3295,-145.319404 24.5113,-150.36676 0.5029,-2.147859 0.9799,-2.25 10.5078,-2.25 5.4895,0 9.9809,-0.407044 9.9809,-0.904542 0,-0.497497 -2.3629,-2.238101 -5.251,-3.868007 -10.4292,-5.885892 -16.8094,-15.761408 -15.3182,-23.71012 1.4988,-7.989277 9.3725,-15.901476 20.8476,-20.949594 10.6236,-4.673499 18.2213,-6.007168 34.2216,-6.007168 11.427,0 16.6674,0.441872 22,1.855057 23.4135,6.204763 36.158,18.999502 32.4908,32.618719 -1.459,5.417965 -8.443,12.910107 -15.4588,16.583345 -2.9596,1.549558 -5.1635,3.169489 -4.8976,3.599845 0.266,0.430356 3.3555,0.782465 6.8656,0.782465 3.5101,0 6.6315,0.403793 6.9365,0.897318 0.556,0.899522 -24.0907,151.734192 -25.0463,153.280322 C 1133.1107,228.62994 1109.9585,229 1081.941,229 H 1031 Z M 187.67417,129.34084 C 187.30338,128.97004 187,127.40024 187,125.85239 c 0,-2.09029 0.57883,-2.95456 2.25,-3.35954 1.2375,-0.2999 29.475,-0.42097 62.75,-0.26906 L 312.5,122.5 v 3.5 3.5 l -62.07583,0.25751 c -34.1417,0.14162 -62.3792,-0.0459 -62.75,-0.41667 z m 75.32101,-12.85351 C 262.44783,115.04769 262,112.6068 262,111.06313 262,102.49697 253.88685,78.70666 247.03316,67.175633 219.51496,20.8775 164.93627,0.75538244 115.14566,18.551234 81.827153,30.459728 54.246576,60.271034 45.392938,93.945585 c -0.9478,3.604928 -2.154047,7.116915 -2.68055,7.804415 -1.375859,1.79658 -10.624176,1.64345 -11.326794,-0.18754 C 30.572605,99.443842 34.376058,85.690443 38.498102,75.843422 52.363831,42.720019 79.914171,16.774675 113.31192,5.3880244 133.82565,-1.6059395 170.11251,-1.6342974 190.5,5.3277025 230.4611,18.973775 260.78931,52.419313 271.61412,94.779268 272.98036,100.12567 274.1886,107.65 274.2991,111.5 l 0.2009,7 -5.25482,0.30243 c -4.87166,0.28037 -5.32738,0.11157 -6.25,-2.3151 z M 1194,69.834897 c -15.3204,-7.860305 -20.4803,-25.466012 -11.645,-39.733285 7.5738,-12.230179 22.1502,-16.989402 35.3738,-11.5496 1.7759,0.730537 5.4691,3.423744 8.2072,5.984905 3.7936,3.548461 5.3455,5.919652 6.5212,9.963778 5.8353,20.07263 -5.2259,37.069202 -24.89,38.246121 -6.4728,0.387402 -7.6139,0.142487 -13.5672,-2.911919 z m 21.7898,-5.747815 c 14.8102,-7.635951 16.6194,-26.839588 3.4634,-36.760947 -18.2946,-13.796535 -42.5521,7.655397 -31.5386,27.890894 5.2304,9.609827 18.5057,13.804016 28.0752,8.870053 z m -21.3499,-5.383067 c -0.2735,-0.712792 -0.3719,-7.800292 -0.2186,-15.75 L 1194.5,28.5 l 8.7663,-0.289171 c 9.9295,-0.32754 14.6975,1.219454 16.5951,5.384416 1.8439,4.046863 1.3271,7.162248 -1.7616,10.619118 l -2.9003,3.245916 2.4003,4.736617 C 1221.1029,59.109889 1220.857,60 1215.4447,60 c -4.5478,0 -4.5595,-0.0091 -7.0646,-5.480879 -3.1574,-6.896819 -4.3764,-7.681395 -4.3938,-2.828138 C 1203.9609,58.783171 1203.209,60 1198.852,60 c -2.2834,0 -4.122,-0.540064 -4.4121,-1.295985 z m 16.4003,-20.084188 c 0.4129,-2.177216 -1.3768,-3.582645 -4.5902,-3.604514 -1.847,-0.01257 -2.25,0.533359 -2.25,3.048045 0,2.852284 0.2234,3.041768 3.2418,2.75 2.2304,-0.215591 3.3531,-0.899965 3.5984,-2.193531 z"
       id="path26"
       inkscape:connector-curvature="0" />
    <path
       style="fill:#f05c61"
       d="M 136.5,251.00126 C 92.103243,244.42621 55.272765,215.23873 38.665065,173.46884 34.873719,163.93326 30.71499,148.27017 31.596029,146.84462 31.883132,146.38008 34.099132,146 36.520473,146 c 4.3464,0 4.415932,0.0541 5.462431,4.25 2.434711,9.76188 6.490626,21.22905 9.907529,28.01125 15.094083,29.96022 40.997372,51.14165 73.277937,59.92024 7.25311,1.97247 10.72644,2.26577 26.83163,2.26577 15.91572,0 19.62094,-0.30555 26.52442,-2.18733 44.75556,-12.19962 76.15501,-47.14714 84.24089,-93.75993 l 1.73469,-10 h 4.5 4.5 l -0.28017,6 c -0.33584,7.19248 -3.6045,21.61691 -6.85941,30.27032 -17.94714,47.71369 -60.93641,79.14783 -110.36042,80.69651 -7.425,0.23265 -16.2,0.0232 -19.5,-0.46557 z m 4.5,-17.57865 c -1.375,-0.24526 -5.2,-0.91418 -8.5,-1.48649 C 95.444951,225.50972 62.436059,195.1413 51.504848,157.41997 48.41153,146.74558 48.402478,146 51.366195,146 c 2.123137,0 2.699791,1.05289 5.613774,10.25 1.786168,5.6375 4.607967,12.95 6.270664,16.25 5.542415,11.00018 16.475119,25.55886 19.115729,25.45572 C 84.098967,197.88805 96,186.44367 96,184.84522 96,182.01547 88.7957,166.4212 86.259951,163.76213 83.911533,161.2995 83.780587,160.77849 84.957405,158.57959 86.980873,154.7987 85.700581,153 80.98593,153 75.168267,153 69.272285,146.98395 73.5,145.36163 c 2.457211,-0.94292 1.748196,-2.70163 -2.946736,-7.30936 l -4.446736,-4.36414 -14.303264,0.67327 C 9.1730143,136.36802 1.0921983,136.40384 0.3958752,134.58925 -0.52468715,132.1903 0.99997617,129.31732 6.3458658,123.37745 15.901843,112.7597 24.996645,110.76513 53.722676,112.9873 l 16.416696,1.26995 3.430314,-3.32479 C 77.132099,107.47963 78.100988,104 75.5,104 c -2.041619,0 -1.886736,-2.30083 0.339994,-5.050728 1.202695,-1.485266 3.367437,-2.476349 6.25,-2.861435 C 86.498973,95.498835 86.5,95.497733 86.5,91.355338 c 0,-2.380946 0.686855,-4.93282 1.614769,-5.999349 0.888123,-1.020794 3.223729,-5.620939 5.190237,-10.222544 l 3.575468,-8.366554 -6.690237,-6.357009 C 86.510607,56.913527 82.947397,54.040976 82.271994,54.026436 80.424255,53.986659 71.008083,65.86149 66.138233,74.37289 63.773635,78.505675 60.236619,86.41246 58.278198,91.943523 55.467194,99.88249 54.31945,102 52.827332,102 49.780181,102 49.710548,99.714896 52.50411,91.39302 64.211855,56.516254 91.619121,30.648626 126.79419,21.276282 135.24903,19.023501 138.49777,18.690183 152,18.690183 c 13.46895,0 16.76041,0.335981 25.11888,2.564048 40.84459,10.887695 71.53756,44.748804 78.27726,86.357069 1.47646,9.1151 1.14516,10.83218 -1.97412,10.23146 -1.42286,-0.27402 -2.2362,-2.60282 -3.96186,-11.34378 -2.38401,-12.075672 -6.53243,-23.362634 -12.07153,-32.844038 -4.49637,-7.696527 -14.0732,-19.670767 -15.68173,-19.607388 -0.6638,0.02615 -4.24585,2.86858 -7.96012,6.316502 l -6.75321,6.268949 3.58122,8.263959 c 4.49546,10.373611 8.32246,25.244176 9.12137,35.442916 0.61158,7.8073 0.60435,7.83847 -1.74085,7.5 -2.15815,-0.31147 -2.46253,-1.09216 -3.64155,-9.33988 -2.23441,-15.630609 -9.5088,-37.5 -12.47359,-37.5 -0.69844,0 -4.9982,1.821473 -9.55503,4.047718 -5.58635,2.729219 -8.27914,4.602218 -8.26671,5.75 0.0101,0.936255 0.65255,5.302282 1.42759,9.702282 0.77504,4.4 1.7284,12.3875 2.11858,17.75 0.68502,9.41474 0.63841,9.75 -1.35564,9.75 -1.77822,0 -2.14781,-0.79865 -2.6609,-5.75 C 181.08683,88.49902 179.76111,81 178.02351,81 c -0.49467,0 -3.73983,0.642045 -7.21146,1.426766 -11.3054,2.555455 -20.49473,2.857348 -31.81205,1.045105 -5.775,-0.924751 -11.4,-1.746729 -12.5,-1.826618 -1.77612,-0.128993 -2.18638,0.974143 -3.66497,9.854747 -0.91573,5.5 -1.81573,13.13636 -2,16.96969 l -0.33503,6.9697 4,0.68616 c 2.2,0.37739 9.28699,0.82273 15.74886,0.98963 l 11.74887,0.30347 4.36771,-4.28659 c 3.27659,-3.21573 5.39575,-4.42447 8.48293,-4.83855 5.92372,-0.79454 6.21705,1.24733 1.23344,8.58601 -2.24499,3.30591 -4.08181,6.73205 -4.08181,7.61365 0,0.8816 1.575,4.06502 3.5,7.07428 4.47639,6.99773 4.49028,8.43255 0.0816,8.43255 -2.60368,0 -4.67474,-1.07244 -8.69023,-4.5 l -5.27188,-4.5 -10.05977,0.0989 c -5.53287,0.0544 -12.53477,0.39189 -15.55977,0.75 l -5.5,0.6511 0.30098,9 c 0.33555,10.03401 2.83013,27.53111 4.10721,28.80819 0.45505,0.45505 4.24289,0.12186 8.41742,-0.74042 9.70483,-2.00458 27.59125,-2.01547 37.23905,-0.0227 4.11419,0.84981 7.85641,1.31269 8.31603,1.02863 1.11059,-0.68639 3.05155,-12.99872 4.01991,-25.50002 0.42983,-5.54904 1.05863,-10.36628 1.39733,-10.70498 0.3387,-0.3387 1.37586,-0.32416 2.30481,0.0323 1.48403,0.56948 1.61029,1.7677 1.04044,9.87354 -0.35671,5.07398 -1.32174,13.05041 -2.14451,17.72541 -0.82276,4.675 -1.49655,9.05798 -1.4973,9.73996 -7.5e-4,0.68198 4.0386,3.26896 8.97634,5.74884 l 8.9777,4.50888 1.53603,-2.34428 c 4.18102,-6.38103 8.71181,-21.56501 10.84587,-36.34761 1.02985,-7.13373 1.61594,-8.86569 3.09665,-9.15085 1.00451,-0.19345 2.13572,0.14879 2.5138,0.76053 2.02444,3.27562 -3.7571,29.33791 -9.40533,42.39771 l -3.54071,8.18682 6.74914,6.20372 c 3.71203,3.41205 7.30174,6.22455 7.97715,6.25 1.85111,0.0698 11.25995,-11.80829 16.21872,-20.47511 5.2731,-9.21619 10.48543,-24.05084 12.29013,-34.97861 1.23617,-7.48515 1.48022,-8 3.79217,-8 2.34541,0 2.45309,0.25407 2.11913,5 -0.94251,13.39409 -8.12235,32.88069 -17.39801,47.21939 -13.49116,20.8552 -37.0479,37.7208 -61.25015,43.85244 -9.65737,2.44669 -29.90115,4.0278 -36.5,2.85078 z m 36.77338,-8.65017 c 4.55036,-1.36723 8.58445,-2.79694 8.96463,-3.17712 2.18018,-2.18018 -8.05014,-9.16621 -18.73801,-12.79573 -8.51735,-2.89243 -22.94344,-3.06208 -31,-0.36456 -10.42187,3.48948 -21.79411,10.47106 -20.49092,12.57966 0.66372,1.07393 8.47621,3.66143 16.6039,5.49922 10.34826,2.3399 34.16827,1.41108 44.6604,-1.74147 z M 114.5,213.61733 l 3,-2.48154 -5.08133,-5.3179 C 109.62393,202.89305 105.87362,198.5875 104.08464,196.25 102.29565,193.9125 100.24342,192 99.524124,192 97.462933,192 88,200.99081 88,202.94916 c 0,1.837 8.920661,8.86916 16.18126,12.75569 4.43675,2.37495 5.08168,2.24448 10.31874,-2.08752 z m 96.65335,-5.42588 C 213.81901,206.20135 216,203.80404 216,202.86409 216,201.03121 206.3182,192 204.35328,192 c -0.64959,0 -3.42836,2.8125 -6.17504,6.25 -2.74668,3.4375 -6.38543,7.57169 -8.0861,9.18709 -1.70068,1.6154 -3.09214,3.26397 -3.09214,3.66349 0,0.39952 1.88321,2.11133 4.18491,3.80401 l 4.1849,3.07762 5.46845,-3.0862 c 3.00764,-1.69741 7.64943,-4.71446 10.31509,-6.70456 z m -84.17359,-1.80003 C 129.19089,205.5067 131,204.21894 131,203.52974 c 0,-0.68921 -1.29019,-4.12785 -2.86709,-7.64142 -1.5769,-3.51358 -3.43126,-8.18832 -4.1208,-10.38832 -1.61182,-5.14254 -2.36095,-5.8914 -4.64421,-4.64251 -1.02735,0.56194 -2.9929,1.26456 -4.3679,1.56138 -3.84789,0.83063 -9,4.36535 -9,6.17464 0,2.79979 13.79133,18.759 16.72976,19.35953 0.12637,0.0258 2.03887,-0.6769 4.25,-1.56162 z m 61.50728,-5.10389 c 6.18704,-6.22443 9.90107,-11.83374 9.14313,-13.8089 -0.74878,-1.9513 -13.16394,-7.87152 -15.01644,-7.16065 -0.74601,0.28627 -1.67342,1.79434 -2.06091,3.35126 -0.3875,1.55692 -2.47041,6.60555 -4.62868,11.21918 -2.15828,4.61364 -3.92414,8.57314 -3.92414,8.7989 0,0.22575 1.88948,1.25641 4.19884,2.29034 4.95387,2.21791 5.7076,1.93023 12.2882,-4.69013 z m -17.29652,-5.80648 c 4.15276,-8.7702 6.38394,-16.30659 5.18314,-17.50739 -1.85582,-1.85582 -14.81044,-3.93906 -24.37366,-3.91954 -10.16471,0.0207 -22.38323,1.92911 -24.24007,3.78595 -1.3822,1.3822 1.06531,9.8418 5.25972,18.17975 l 2.77675,5.51982 16.28102,-0.0388 16.28103,-0.0388 2.83207,-5.98106 z m -64.73371,-16.41116 c 0.57721,-0.93396 -6.599243,-9.9069 -9.093257,-11.36958 -2.002962,-1.17469 -1.702192,1.95639 0.695675,7.24213 2.847302,6.27647 3.778972,7.21452 5.990082,6.03117 1.01162,-0.5414 2.09499,-1.39808 2.4075,-1.90372 z m 13.11152,-6.38737 c 0.27806,-0.72461 -0.17779,-5.2361 -1.01299,-10.02554 -0.83521,-4.78944 -1.81271,-13.08407 -2.17223,-18.43252 -0.35951,-5.34845 -1.10627,-10.29706 -1.65945,-10.9969 -0.76112,-0.96289 -3.58662,-1.11481 -11.61473,-0.62447 -5.83491,0.35638 -10.98249,0.98753 -11.439064,1.40257 -0.649121,0.59006 12.189224,22.52051 22.095984,37.74434 1.60626,2.46836 5.00361,3.01435 5.80248,0.93252 z M 115.41407,113.75 c 0.2487,-1.2375 1.17919,-8.1 2.06776,-15.25 0.88856,-7.15 1.86897,-14.457316 2.17868,-16.23848 0.42834,-2.463444 0.15881,-3.393623 -1.12624,-3.886744 -0.92915,-0.356546 -2.31321,-0.02423 -3.0757,0.73848 C 113.20761,81.364865 94,112.26976 94,113.63993 c 0,1.23726 3.707669,1.74991 15.73095,2.17509 4.69505,0.16603 5.27727,-0.0455 5.68312,-2.06502 z M 102.94683,78.441857 c 3.41113,-3.700641 3.97643,-4.829394 3.00492,-6 -2.1255,-2.561061 -4.80511,-1.651927 -6.803115,2.308143 -4.766329,9.446938 -3.047056,11.118077 3.798195,3.691857 z m 64.65465,-1.532914 c 3.44593,-0.600081 7.05785,-1.67057 8.0265,-2.378865 1.58052,-1.155707 1.62829,-1.736192 0.46567,-5.658943 C 175.38111,66.467011 173.34982,61.35 171.57967,57.5 l -3.21847,-7 -16.31152,0.04435 -16.31152,0.04435 -2.74829,5.455652 c -4.21482,8.366892 -6.61261,16.732912 -5.20054,18.144985 3.29725,3.297248 27.14164,4.926084 39.81215,2.71961 z m 23.47281,-7.946446 c 3.3095,-1.670626 6.27446,-3.707751 6.58881,-4.526944 0.74257,-1.935085 -3.21243,-7.574639 -10.03801,-14.313534 -5.00336,-4.939819 -5.72541,-5.32578 -8.86239,-4.737279 -1.87838,0.352385 -4.21685,1.226857 -5.1966,1.94327 -1.68222,1.230066 -1.61604,1.632909 1.18884,7.23728 1.63362,3.26409 3.54128,7.73471 4.23925,9.93471 2.77535,8.747916 3.24618,8.921846 12.0801,4.462497 z M 130.36856,47.280232 c -0.94381,-0.690135 -3.25477,-1.543462 -5.13546,-1.896281 -3.18467,-0.597448 -3.85366,-0.211135 -9.74392,5.626777 -3.47847,3.447547 -7.14904,7.814589 -8.15683,9.704538 -1.82827,3.428625 -1.82699,3.440635 0.57497,5.398184 1.91265,1.558768 3.28118,1.830869 6.66001,1.324182 2.39076,-0.358517 5.05829,-0.179981 6.09268,0.407781 1.63867,0.931118 2.36434,-0.0681 6.63229,-9.132439 4.41543,-9.377576 4.65735,-10.276626 3.07626,-11.432742 z M 104.08464,55.75 c 1.78898,-2.3375 5.52319,-6.611756 8.29823,-9.498346 l 5.04554,-5.248347 -3.4642,-2.961013 C 112.05889,36.413737 109.6,35.070667 108.5,35.057693 104.53867,35.010973 88,46.321127 88,49.076851 88,51.016177 97.478099,60 99.524124,60 c 0.719296,0 2.771526,-1.9125 4.560516,-4.25 z m 106.68254,-0.327547 c 5.55434,-4.858807 6.30792,-6.831768 3.48282,-9.118438 -5.50688,-4.457332 -16.81033,-11.300164 -18.62831,-11.277114 -1.16693,0.01479 -3.69669,1.339326 -5.62169,2.943402 l -3.5,2.916501 4.58742,4.806598 c 2.52308,2.643629 6.28979,6.944098 8.37046,9.556598 2.08068,2.6125 4.29907,4.75 4.92976,4.75 0.63069,0 3.50148,-2.059896 6.37954,-4.577547 z M 160.64714,45.066918 c 10.85354,-2.058332 25.43027,-9.447055 26.15508,-13.257618 0.40121,-2.109309 -8.63489,-5.090528 -20.83757,-6.874796 -14.61405,-2.136857 -39.43548,0.500823 -48.03815,5.104833 l -2.1145,1.131645 2.20844,2.350779 c 3.36127,3.577907 15.28012,9.451187 22.25531,10.966796 7.55371,1.641316 13.82727,1.819428 20.37139,0.578361 z M 399.49746,227.75 c -0.24188,-0.6875 5.55682,-34.55 12.886,-75.25 C 419.71264,111.8 425.5231,78.1625 425.2956,77.75 425.0681,77.3375 410.7194,77 393.4096,77 369.14737,77 361.83027,76.713632 361.47036,75.75 360.96779,74.404431 370.47779,19.653963 371.50191,17.996915 371.90553,17.343841 411.24443,17 485.55902,17 H 599 l -0.009,2.25 c -0.0152,3.679512 -9.94508,56.104389 -10.7861,56.945411 -0.42553,0.425532 -14.0259,0.893146 -30.22304,1.039142 L 528.5322,77.5 515.0161,152 c -7.43385,40.975 -13.88016,75.0625 -14.32512,75.75 -1.18121,1.82507 -100.55143,1.82507 -101.19352,0 z m 191.89425,-0.17161 C 590.77051,225.95958 614.5682,79.699231 616.014,76.25 616.90772,74.117863 617.51136,74 627.53758,74 c 6.13088,0 10.34303,-0.384159 10.01589,-0.913477 -0.3105,-0.502412 -2.69956,-1.942645 -5.30901,-3.200518 -7.2344,-3.487303 -14.6294,-11.386311 -16.08991,-17.18651 -1.70567,-6.773849 -0.15315,-11.717587 5.61698,-17.886328 11.07632,-11.841481 35.41589,-18.35445 58.86885,-15.752577 36.08783,4.003588 55.24867,25.892469 37.87437,43.26677 -2.38234,2.382339 -6.84669,5.645776 -9.92076,7.252083 -3.07408,1.606306 -5.59031,3.258057 -5.59161,3.670557 -10e-4,0.4125 3.16174,0.75 7.029,0.75 5.2328,0 7.17429,0.372391 7.59004,1.455823 0.56774,1.479507 -23.277,147.170787 -24.76174,151.294177 L 692.0495,229 h -50.05613 c -42.34517,0 -50.14018,-0.21899 -50.60166,-1.42161 z M 722.00679,226.25 c 0.004,-1.5125 8.03474,-48.5808 17.84667,-104.59622 12.37023,-70.620558 18.27012,-102.118613 19.2432,-102.734683 1.87087,-1.184471 97.97703,-1.158175 99.85088,0.02732 1.23239,0.779671 0.38,6.972887 -5.73467,41.666677 -3.95022,22.412987 -6.97828,40.954826 -6.72903,41.204086 0.43907,0.43907 8.13653,-7.407051 55.49538,-56.567181 L 924.37732,22 h 57.81134 C 1019.7109,22 1040,22.347778 1040,22.990949 c 0,0.545022 -21.825,23.090682 -48.5,50.101466 C 964.825,100.1032 943,122.89496 943,123.74078 c 0,0.84582 14.175,24.38371 31.5,52.30642 17.325,27.92271 31.5,51.03502 31.5,51.36069 0,0.32566 -27.15526,0.59211 -60.34501,0.59211 -56.23506,0 -60.44687,-0.11919 -61.84052,-1.75 -0.82253,-0.9625 -10.42601,-16.375 -21.34107,-34.25 -25.59322,-41.91262 -24.55094,-40.25579 -25.02554,-39.78119 -0.22427,0.22427 -3.36952,17.22963 -6.98945,37.7897 -3.61993,20.56007 -6.80551,37.74409 -7.07907,38.18672 C 823.10579,228.63785 800.18352,229 772.44098,229 H 722 l 0.007,-2.75 z m 309.53871,1.82356 c -0.6142,-0.99375 23.8887,-151.349024 24.9427,-153.054521 C 1056.8509,74.432267 1061.547,74 1067.559,74 c 5.7426,0 10.441,-0.381657 10.441,-0.848126 0,-0.466469 -1.8711,-1.691859 -4.1579,-2.72309 -19.1247,-8.624033 -23.5563,-25.419835 -9.9504,-37.711958 24.3188,-21.970591 86.5614,-17.310828 99.1807,7.425122 5.4768,10.735432 -1.3237,23.719632 -15.8486,30.259926 -2.3231,1.046031 -4.2238,2.283531 -4.2238,2.75 0,0.466469 3.1641,0.848126 7.0314,0.848126 5.7608,0 7.1521,0.314665 7.6996,1.741399 0.7841,2.043326 -23.587,150.165211 -25.0106,152.008601 -1.1841,1.53335 -100.2315,1.8501 -101.1749,0.32356 z M 188.67429,128.34095 c -1.24262,-1.24262 -0.69092,-4.12059 0.9075,-4.73396 2.47474,-0.94965 119.75366,-0.68064 121.2666,0.27815 0.74162,0.46998 1.1855,1.70059 0.9864,2.73469 -0.34894,1.81237 -2.56389,1.88946 -61.42411,2.13779 -33.58416,0.14169 -61.36554,-0.0458 -61.73639,-0.41667 z M 264.51981,116.75 c -0.22958,-0.6875 -1.14042,-5.2433 -2.02409,-10.124 C 257.7782,80.57017 246.17774,58.758715 227.79104,41.373516 214.20465,28.527148 197.83754,19.306788 180,14.45057 168.18063,11.232781 148.47476,10.115622 135.91886,11.951536 112.2343,15.414677 90.281018,26.83124 72.850835,44.749369 59.548343,58.424254 50.821476,72.846293 45.457123,90.020275 41.803732,101.71661 41.965364,101.5 36.891014,101.5 H 32.5 l 0.337926,-3.428888 C 33.391786,92.451183 38.559572,77.833836 43.341661,68.360763 57.512899,40.288266 82.003354,18.062937 109.88106,7.975603 126.74124,1.8748772 133.91171,0.62348412 152,0.62499164 c 14.45437,0.001205 17.73978,0.31990624 26.5,2.57063916 13.58338,3.4899292 24.38455,7.8167692 34.34903,13.7598792 25.97485,15.492168 44.86387,39.065412 54.57743,68.111881 3.7002,11.064724 7.21448,28.819959 6.2182,31.416239 -0.72615,1.8923 -8.50605,2.11941 -9.12485,0.26637 z M 1197.6152,70.360789 C 1190.3901,68.142263 1182.6626,60.087186 1180.4466,52.464318 1175.2897,34.725129 1187.8013,18 1206.2285,18 c 10.9996,0 19.1029,4.680954 24.1471,13.948762 5.9963,11.017186 4.2074,22.416011 -4.9777,31.718585 -7.6898,7.788048 -16.9512,10.019326 -27.7827,6.693442 z m 15.2174,-3.903715 c 6.1438,-1.824501 11.4969,-6.222476 14.3276,-11.771092 1.6423,-3.219202 1.9705,-5.426312 1.6755,-11.267733 -0.3142,-6.223415 -0.8142,-7.884379 -3.4889,-11.591301 -11.6901,-16.201169 -36.6811,-11.275969 -41.3406,8.147374 -2.8379,11.829586 5.0627,24.064266 17.4938,27.090609 4.5889,1.117159 5.7299,1.055956 11.3326,-0.607857 z m -17.3944,-8.757525 c -0.2745,-0.715249 -0.3728,-7.352749 -0.2186,-14.75 L 1195.5,29.5 1201,29.181588 c 7.5251,-0.43565 13.4786,0.5756 16.1569,2.744382 3.3504,2.712975 3.0512,8.203633 -0.658,12.07521 l -2.9012,3.028128 2.7012,5.5075 c 1.4856,3.029125 2.7011,5.722531 2.7011,5.985346 0,0.262815 -1.5685,0.477846 -3.4856,0.477846 -3.2611,0 -3.6828,-0.390612 -6.5469,-6.064301 -4.0461,-8.015296 -6.3374,-7.905587 -6.7674,0.324019 C 1201.9056,58.89616 1201.8463,59 1198.9187,59 c -1.6398,0 -3.206,-0.585203 -3.4805,-1.300451 z m 13.9967,-15.674798 c 1.771,-0.673326 2.5651,-1.71897 2.5651,-3.377555 0,-3.257438 -2.2025,-4.847668 -6.1847,-4.465427 -2.7975,0.268531 -3.3656,0.757157 -3.6376,3.128703 -0.5631,4.911499 2.1326,6.66265 7.2572,4.714279 z"
       id="path24"
       inkscape:connector-curvature="0" />
    <path
       style="fill:#7a849f"
       d="m 140.25,251.32825 c -2.8875,-0.23802 -5.25,-0.79809 -5.25,-1.24459 0,-0.44649 -1.9125,-1.07686 -4.25,-1.40082 C 116.97163,246.77331 97.561397,238.65559 83.452586,228.90217 64.426134,215.7492 47.045459,193.43685 39.127438,172 36.33821,164.44858 33,152.03252 33,149.20973 c 0,-2.06855 0.40679,-2.29558 3.619655,-2.0201 3.588424,0.30769 3.635037,0.37077 5.402514,7.31037 11.323746,44.46017 46.115095,77.85817 89.665841,86.07483 17.6068,3.32185 40.19903,1.63475 56.62398,-4.22844 40.31306,-14.39052 69.15196,-49.85731 75.78786,-93.20577 L 265.34604,135 h 3.26796 c 1.79738,0 3.53464,0.43149 3.86057,0.95886 0.94651,1.53147 -2.20776,19.08814 -5.06594,28.1971 -8.39509,26.75496 -25.87311,50.42971 -48.77847,66.0726 -12.17146,8.31233 -38.49578,18.75867 -47.29683,18.76892 -1.19166,0.001 -2.31666,0.42973 -2.5,0.95188 -0.37541,1.06919 -20.53981,2.04195 -28.58333,1.37889 z M 136.5,231.55161 C 101.99949,226.1587 73.198065,204.1729 57.917504,171.56503 54.068087,163.35059 49.384533,148.28213 50.373393,147.29327 51.373384,146.29328 54,147.92217 54,149.5423 c 0,2.87039 5.049492,16.78482 8.694158,23.9577 6.595628,12.98053 16.284285,25.5078 19.712379,25.48777 2.449499,-0.0143 15.918716,-12.76674 15.212355,-14.4028 -0.257635,-0.59674 -2.067861,-4.99259 -4.022725,-9.76858 -1.954863,-4.77599 -4.703082,-9.8324 -6.107153,-11.23647 -2.376164,-2.37616 -2.447927,-2.71299 -1.036839,-4.86659 C 88.748927,155.20805 86.199741,152 81.11761,152 c -2.691694,0 -4.417334,-0.69014 -6.037296,-2.41451 l -2.268313,-2.41451 2.093999,-1.12067 c 1.1517,-0.61637 2.094,-1.50618 2.094,-1.97734 0,-0.47116 -2.125603,-3.22085 -4.723563,-6.1104 l -4.723562,-5.25374 -20.526438,0.87711 c -11.28954,0.4824 -26.338193,0.88542 -33.44145,0.89558 -13.09677565,0.0187 -15.231267,-0.60487 -12.3796299,-3.61679 0.7120536,-0.75208 2.9939115,-3.48191 5.0707954,-6.06628 4.9716555,-6.1865 14.5486415,-11.01215 23.0903165,-11.63475 3.373442,-0.24588 13.927077,0.12992 23.452522,0.83512 l 17.318992,1.28218 4.431008,-4.34871 C 79.412003,106.17923 80.075306,104.09396 77,103.28975 75.9,103.00209 75,102.43897 75,102.03836 75,100.32828 78.895863,98 81.757312,98 c 4.218887,0 6.547603,-2.511119 5.945557,-6.41126 -0.283841,-1.838769 0.08489,-3.728077 0.911157,-4.668572 0.763372,-0.868908 3.230262,-5.818908 5.481978,-11 L 98.190032,66.5 90.845016,59.770247 c -4.039759,-3.701365 -8.072492,-6.738865 -8.961629,-6.75 C 79.571191,52.991288 68.708978,67.084616 63.786732,76.5 c -2.300265,4.4 -5.395616,11.6 -6.878556,16 -1.7,5.044031 -3.289652,8.11947 -4.302216,8.32332 C 51.722682,101.00115 51,100.69951 51,100.153 51,98.309021 57.206677,81.539601 59.75442,76.5 79.141971,38.150168 121.10795,15.049002 162.62118,19.874556 205.06802,24.808633 239.47129,54.08819 251.46915,95.490302 254.78585,106.93553 255.85462,117 253.75332,117 c -1.10366,0 -1.72029,-1.58006 -2.24002,-5.73985 C 249.85471,97.985272 243.1098,80.030611 235.44159,68.47796 230.91944,61.665059 223.20151,52.999553 221.65733,53.001338 221.0208,53.002074 217.125,56.094615 213,59.873651 l -7.5,6.870976 2.37746,4.877686 c 5.30759,10.889268 9.46678,25.780538 10.68571,38.258387 0.59438,6.08449 0.47653,7.2995 -0.67108,6.91835 -0.87188,-0.28956 -1.64233,-2.69995 -2.06173,-6.4502 -1.01825,-9.10526 -4.47287,-22.629144 -7.85707,-30.758363 C 202.99103,67.622556 203.88664,67.976381 192.66991,73.544652 185.69124,77.009045 183,78.85665 183,80.183289 c 0,1.011033 0.64339,5.995897 1.42976,11.077476 C 186.46454,104.40966 187.37879,117 186.29883,117 c -0.50014,0 -1.4835,-5.2875 -2.18524,-11.75 -1.31152,-12.077991 -3.43764,-23.907382 -4.4852,-24.954939 -0.3257,-0.325704 -4.31283,0.214459 -8.86029,1.200362 -10.43253,2.261806 -27.68905,2.310507 -37.08015,0.104648 -9.248,-2.172246 -9.47126,-2.126984 -10.6044,2.149929 -1.72568,6.513369 -4.32536,28.15043 -3.68757,30.69156 0.71797,2.86064 2.60787,3.21547 20.97823,3.93872 l 11.87421,0.46749 4.79893,-4.48883 c 4.09565,-3.831 5.31683,-4.44268 8.33289,-4.17389 l 3.53397,0.31495 -4.45663,6.91296 -4.45662,6.91296 2.65488,4.58704 c 1.46018,2.52287 3.25996,5.47467 3.99952,6.55955 1.95025,2.86089 1.68143,3.52749 -1.42254,3.52749 -1.85084,0 -4.47062,-1.49014 -7.91135,-4.5 l -5.14417,-4.5 -11.33865,0.0876 c -6.23626,0.0482 -13.58865,0.38568 -16.33865,0.75 l -5,0.66239 0.24285,9.34637 c 0.2763,10.63384 2.81,29.10648 4.18016,30.47664 0.55282,0.55282 4.40797,0.27345 9.7458,-0.70623 11.04001,-2.02625 25.76537,-2.07409 35.99322,-0.11695 4.31088,0.8249 8.37932,1.4999 9.04097,1.5 1.69569,2.4e-4 3.10016,-5.80777 4.35264,-17.99983 1.80249,-17.54604 2.03249,-19 3.00563,-19 1.3544,0 1.12515,6.89764 -0.64811,19.5 -0.85129,6.05 -1.78854,12.80176 -2.08279,15.00392 l -0.535,4.00391 9.37253,4.74609 c 5.1549,2.61034 9.69446,4.74608 10.08792,4.74608 1.39143,0 6.79883,-12.10167 9.2685,-20.74271 1.37658,-4.81651 3.07923,-12.77645 3.78366,-17.68875 0.7234,-5.04462 1.80544,-9.10635 2.4864,-9.33333 4.04003,-1.34668 -2.39149,29.93903 -8.79132,42.76479 -3.5815,7.17761 -3.5776,7.19266 3.72516,14.34408 4.00376,3.9208 7.63696,6.63646 8.88839,6.64369 2.90383,0.0168 13.18996,-13.09714 18.81523,-23.98777 5.38387,-10.42327 8.24557,-18.73577 10.50009,-30.5 1.20812,-6.30406 2.15063,-9 3.14642,-9 1.7877,0 1.49572,3.9928 -1.11209,15.2074 -6.99299,30.07265 -25.32241,54.49826 -52.17726,69.53094 -19.00009,10.63579 -42.34353,14.74365 -64.289,11.31327 z m 34.32313,-4.0144 c 10.24561,-2.15524 17.62949,-4.9334 17.98238,-6.76583 0.18688,-0.97036 -1.48908,-2.83363 -4.26938,-4.74652 -17.94414,-12.34589 -37.51698,-14.12804 -56.03613,-5.10219 -9.63959,4.69813 -14.07007,8.14937 -13.23966,10.31338 0.66171,1.7244 7.12046,4.10794 16.85264,6.21931 8.64218,1.87489 29.97191,1.91999 38.71015,0.0818 z M 113.50304,215.75 c 5.14118,-3.78117 5.56173,-5.84891 1.74696,-8.58933 -1.5125,-1.08654 -5.225,-5.1636 -8.25,-9.06014 -3.57131,-4.60025 -6.20134,-7.08215 -7.5,-7.07756 -2.110699,0.007 -13.5,9.92111 -13.5,11.75089 0,2.2431 19.17983,16.19919 22.29204,16.22067 0.43562,0.003 2.78057,-1.45703 5.211,-3.24453 z m 92.02584,-2.58798 c 4.93412,-3.21089 9.86036,-6.84625 10.94721,-8.07857 l 1.97608,-2.24058 -6.12653,-5.92143 C 208.89744,193.608 205.29556,191 204.1476,191 c -1.28255,0 -3.16108,1.59303 -5.01167,4.25 -1.62808,2.3375 -5.2497,6.48308 -8.04804,9.21241 -2.79834,2.72932 -5.08789,5.6864 -5.08789,6.57129 0,1.58652 7.52911,7.84968 9.52888,7.92668 0.56588,0.0218 5.06588,-2.58747 10,-5.79836 z M 127.7258,207.25 c 2.33575,-0.9625 4.46026,-2.30312 4.72112,-2.97915 0.26087,-0.67603 -1.0275,-4.50103 -2.86303,-8.5 -1.83554,-3.99897 -4.10503,-9.40835 -5.04332,-12.02085 -1.70696,-4.75271 -3.00416,-5.5478 -6.30414,-3.86398 -0.95504,0.4873 -4.11323,1.92092 -7.0182,3.18581 -7.89959,3.43966 -8.1345,4.08047 -3.80186,10.37127 3.65961,5.31359 13.70958,15.5569 15.26326,15.5569 0.43965,0 2.71042,-0.7875 5.04617,-1.75 z m 59.36581,-2.93246 C 193.47401,198.34756 199,190.8352 199,188.12859 c 0,-1.60441 -1.68202,-2.9505 -7.08978,-5.6738 -3.89938,-1.9637 -7.99888,-3.43186 -9.10999,-3.26258 -1.51124,0.23025 -2.70919,2.19733 -4.75494,7.80779 -1.5041,4.125 -3.70461,9.39457 -4.89001,11.71016 -1.1854,2.31559 -2.15528,4.66106 -2.15528,5.21216 0,1.02915 7.47874,4.8426 9.79284,4.99342 0.71106,0.0463 3.54551,-2.02285 6.29877,-4.5982 z m -39.13717,-1.9747 c 4.15006,-0.30966 9.99172,-0.1097 12.98147,0.44435 2.98975,0.55405 5.98031,0.79845 6.64569,0.54313 2.83466,-1.08777 11.32633,-22.52192 10.14363,-25.60397 -1.06745,-2.78173 -10.42875,-4.23093 -26.72523,-4.13725 -10.73116,0.0617 -16.8845,0.54218 -20,1.56175 -4.35002,1.42356 -4.49698,1.6039 -4.40948,5.4109 0.10524,4.57876 5.51338,18.09927 8.53839,21.34625 1.25649,1.34868 2.70754,1.985 3.67765,1.61273 0.88128,-0.33817 4.99783,-0.86822 9.14788,-1.17789 z M 105.53518,181.38499 C 106.89083,180.49673 108,179.20818 108,178.52153 c 0,-0.68665 -2.65971,-4.12239 -5.91047,-7.63499 -4.657008,-5.03212 -6.174556,-6.13084 -7.155725,-5.18081 -0.991097,0.95963 -0.793858,2.38834 0.96638,7 2.55011,6.68104 4.711555,10.29427 6.158055,10.29427 0.55667,0 2.12129,-0.72675 3.47694,-1.61501 z m 15.07638,-7.81511 c 0.30183,-0.78657 -0.17625,-5.99059 -1.06241,-11.56449 -0.88616,-5.57391 -1.8902,-14.38165 -2.23119,-19.57277 -0.3815,-5.80775 -1.11723,-9.85107 -1.91266,-10.51121 -1.94275,-1.61234 -24.411108,-0.0699 -25.099126,1.7231 -0.287476,0.74915 5.020411,10.36061 11.795306,21.35879 11.31019,18.36066 12.54884,19.9967 15.13964,19.9967 1.55191,0 3.06861,-0.64356 3.37044,-1.43012 z m -4.81083,-57.82978 c 0.5751,-0.69294 1.31812,-4.18044 1.65116,-7.75 0.33304,-3.56955 1.34641,-11.589838 2.25194,-17.822851 1.42019,-9.775581 1.4506,-11.459573 0.22129,-12.255728 -3.43013,-2.221514 -5.2906,-0.249503 -16.56626,17.559422 -6.258025,9.884017 -11.226477,18.434017 -11.041,18.999997 0.709781,2.16589 21.79298,3.30536 23.48287,1.26916 z M 103.18959,79.794853 C 105.83532,76.932022 108,74.058776 108,73.409863 c 0,-1.930115 -5.14473,-4.808339 -6.76636,-3.785443 -1.899919,1.198439 -6.499455,12.240494 -5.827812,13.990767 0.939144,2.447371 2.864847,1.502221 7.783762,-3.820334 z m 65.41189,-1.88591 c 3.44593,-0.600081 7.07487,-1.683017 8.06432,-2.406523 1.62261,-1.186481 1.67615,-1.790386 0.54597,-6.158944 C 176.52259,66.679564 174.28051,61.125 172.22936,57 L 168.5,49.5 151.81877,49.45528 135.13753,49.41056 133.06282,53.102004 C 130.10302,58.368263 126,69.616163 126,72.463812 c 0,1.329985 0.5625,2.770236 1.25,3.200558 4.8136,3.012943 29.30514,4.342353 41.35148,2.244573 z M 126.40732,63.830807 c 1.79122,-4.768056 4.04154,-9.866911 5.00071,-11.330788 2.33514,-3.563879 1.48381,-5.217978 -3.91467,-7.60598 -4.5233,-2.000872 -4.53455,-2.000895 -7.32385,-0.01474 -6.43798,4.584246 -16.9594,18.033627 -15.70079,20.070097 1.36084,2.201889 6.6457,4.080789 10.74495,3.820098 3.17842,-0.202131 4.26812,0.105435 4.35966,1.23051 0.23273,2.860463 0.43452,3.145038 2.00194,2.823324 0.94843,-0.194664 2.87124,-3.773057 4.83205,-8.992517 z M 192,69.608484 c 8.63978,-4.45483 8.80956,-6.025533 1.59654,-14.770207 -3.01882,-3.659862 -7.05373,-7.847949 -8.96646,-9.306861 l -3.4777,-2.652566 -5.07619,2.183719 c -5.34032,2.297346 -5.99404,3.595679 -3.63661,7.222614 1.21353,1.867032 5.77896,12.835398 7.89384,18.964817 0.89866,2.604554 4.38229,2.114399 11.66658,-1.641516 z M 104.73196,56.75 c 1.68905,-2.3375 5.42555,-6.581033 8.30334,-9.430073 3.39028,-3.356409 5.02568,-5.718629 4.64532,-6.709825 -0.97131,-2.531193 -8.64196,-7.558658 -10.50038,-6.882112 C 101.79513,35.68841 86,47.269176 86,49.257047 c 0,1.906102 11.375573,11.742166 13.58048,11.742571 1.29949,2.39e-4 3.2333,-1.595028 5.15148,-4.249618 z M 211.1469,56.467287 c 6.57833,-5.615164 7.14456,-6.606154 5.2886,-9.255912 -1.90357,-2.717728 -17.7495,-13.283998 -20.19825,-13.468457 -2.46124,-0.185399 -10.18865,5.332366 -10.2159,7.294674 -0.0117,0.845675 2.2682,3.770675 5.06654,6.5 2.79834,2.729324 6.41996,6.874908 8.04804,9.212408 1.69248,2.429955 3.7611,4.25 4.83046,4.25 1.02866,0 4.2599,-2.039721 7.18051,-4.532713 z M 169.29234,43.954496 C 177.67928,41.159384 188.5,34.131587 188.5,31.479585 c 0,-1.474984 -1.60293,-2.395339 -7.25454,-4.165349 -18.62759,-5.833907 -38.75034,-5.888421 -58.05576,-0.157275 -4.06269,1.20608 -7.64548,2.867206 -7.96175,3.691392 -1.25037,3.258425 11.35435,11.047996 22.96265,14.190644 9.4074,2.546813 21.46756,2.126282 31.10174,-1.084501 z M 399.49746,227.75 c -0.24188,-0.6875 5.55682,-34.55 12.886,-75.25 C 419.71264,111.8 425.5231,78.1625 425.2956,77.75 425.0681,77.3375 410.7194,77 393.4096,77 369.14737,77 361.83027,76.713632 361.47036,75.75 360.96779,74.404431 370.47779,19.653963 371.50191,17.996915 371.90553,17.343841 411.24443,17 485.55902,17 H 599 l -0.009,2.25 c -0.0152,3.679512 -9.94508,56.104389 -10.7861,56.945411 -0.42553,0.425532 -14.0259,0.893146 -30.22304,1.039142 L 528.5322,77.5 515.0161,152 c -7.43385,40.975 -13.88016,75.0625 -14.32512,75.75 -1.18121,1.82507 -100.55143,1.82507 -101.19352,0 z m 191.89425,-0.17161 C 590.77051,225.95958 614.5682,79.699231 616.014,76.25 616.90772,74.117863 617.51136,74 627.53758,74 c 6.13088,0 10.34303,-0.384159 10.01589,-0.913477 -0.3105,-0.502412 -2.69956,-1.942645 -5.30901,-3.200518 -7.2344,-3.487303 -14.6294,-11.386311 -16.08991,-17.18651 -1.70567,-6.773849 -0.15315,-11.717587 5.61698,-17.886328 11.07632,-11.841481 35.41589,-18.35445 58.86885,-15.752577 36.08783,4.003588 55.24867,25.892469 37.87437,43.26677 -2.38234,2.382339 -6.84669,5.645776 -9.92076,7.252083 -3.07408,1.606306 -5.59031,3.258057 -5.59161,3.670557 -10e-4,0.4125 3.16174,0.75 7.029,0.75 5.2328,0 7.17429,0.372391 7.59004,1.455823 0.56774,1.479507 -23.277,147.170787 -24.76174,151.294177 L 692.0495,229 h -50.05613 c -42.34517,0 -50.14018,-0.21899 -50.60166,-1.42161 z M 722.00679,226.25 c 0.004,-1.5125 8.03474,-48.5808 17.84667,-104.59622 12.37023,-70.620558 18.27012,-102.118613 19.2432,-102.734683 1.87162,-1.184948 97.97708,-1.158141 99.85174,0.02785 1.23423,0.780826 0.44526,6.656429 -5.33555,39.734687 -3.73117,21.3501 -7.15918,40.280864 -7.61779,42.068366 -0.45862,1.7875 -0.4869,3.25 -0.0628,3.25 0.42404,0 12.16362,-11.812502 26.08794,-26.250002 13.92432,-14.4375 31.61966,-32.6625 39.32297,-40.5 L 925.34915,23 h 56.40876 c 33.91799,0 56.27589,0.36688 56.07539,0.920167 -0.1833,0.506092 -22.045,22.971411 -48.58149,49.92293 -36.49145,37.062153 -48.08982,49.415483 -47.59824,50.696493 0.35747,0.93156 14.34238,23.74754 31.07758,50.70218 16.7352,26.95464 30.66505,49.62714 30.95525,50.38333 0.444,1.15704 -8.90324,1.3749 -58.98987,1.3749 h -59.51745 l -23.25772,-38 c -12.79174,-20.9 -23.63204,-38 -24.08954,-38 -0.4575,0 -0.83182,0.41722 -0.83182,0.92715 0,1.90163 -13.14303,75.49526 -13.62066,76.26808 C 823.10579,228.63785 800.18352,229 772.44098,229 H 722 l 0.007,-2.75 z m 309.53871,1.82356 c -0.6142,-0.99375 23.8887,-151.349024 24.9427,-153.054521 C 1056.8509,74.432267 1061.547,74 1067.559,74 c 5.7426,0 10.441,-0.381657 10.441,-0.848126 0,-0.466469 -1.8711,-1.691859 -4.1579,-2.72309 -19.1247,-8.624033 -23.5563,-25.419835 -9.9504,-37.711958 24.3188,-21.970591 86.5614,-17.310828 99.1807,7.425122 5.4768,10.735432 -1.3237,23.719632 -15.8486,30.259926 -2.3231,1.046031 -4.2238,2.283531 -4.2238,2.75 0,0.466469 3.1641,0.848126 7.0314,0.848126 5.7608,0 7.1521,0.314665 7.6996,1.741399 0.7841,2.043326 -23.587,150.165211 -25.0106,152.008601 -1.1841,1.53335 -100.2315,1.8501 -101.1749,0.32356 z M 189.6744,127.34107 C 189.30348,126.97015 189,126.29167 189,125.83333 189,125.375 216.4875,125 250.08333,125 c 48.42217,0 60.99699,0.2591 60.66677,1.25 -0.32579,0.97763 -13.48868,1.30616 -60.40893,1.50774 -32.9958,0.14175 -60.29584,-0.0457 -60.66677,-0.41667 z m 74.02109,-20.33213 C 256.18492,61.2543 223.22268,24.670756 179,13.008613 165.96373,9.5707655 143.93764,9.1062809 130.00778,11.975468 88.123346,20.602571 53.19721,53.901792 42.599547,95.312091 41.285984,100.44483 41.230539,100.5 37.385932,100.5 c -3.571771,0 -3.857603,-0.20211 -3.535519,-2.5 0.643842,-4.593454 5.32093,-18.41686 8.775621,-25.936858 C 50.86362,54.131981 67.488894,34.133519 83.169654,23.293418 96.775656,13.887596 113.05587,6.8298688 128,3.8587639 c 3.575,-0.7107607 6.81199,-1.7425324 7.19331,-2.2928259 1.041,-1.50227361 33.07462,-1.26215305 33.57924,0.2517063 0.21676,0.6502956 1.36912,1.1834907 2.56078,1.1848779 4.62915,0.00539 21.54086,5.2843472 30.45162,9.5054178 13.12494,6.217342 22.26992,12.546041 32.78407,22.687918 19.83133,19.129161 32.23804,42.715696 36.91795,70.185132 C 273.54055,117.4348 273.62733,117 269.16776,117 h -3.83225 z M 1198.7027,69.618518 c -9.9772,-3.718817 -16.8718,-11.941992 -18.2178,-21.728316 -1.4029,-10.200179 5.2099,-22.143583 14.8421,-26.806448 4.925,-2.384147 13.632,-2.775549 19.9088,-0.894956 5.0694,1.518826 13.3028,8.89319 14.9188,13.362282 0.686,1.896906 1.5493,3.44892 1.9185,3.44892 0.3692,0 0.9591,1.8 1.3109,4 0.7187,4.494496 -0.2238,12.217012 -1.4022,11.488734 -0.4227,-0.261202 -1.0286,0.561775 -1.3467,1.828838 -2.7804,11.07812 -20.4923,19.565045 -31.9324,15.300946 z m 13.3318,-1.611602 c 18.6982,-5.194575 24.6398,-28.427768 10.455,-40.882012 C 1217.3332,22.597617 1213.1625,21 1206.5,21 c -6.6835,0 -11.8386,1.988087 -16.3376,6.300681 -10.1545,9.733689 -10.4715,24.053155 -0.7537,34.051979 6.2178,6.397632 14.6369,8.873682 22.6258,6.654256 z m -15.5982,-11.312385 c -0.2756,-0.718008 -0.3739,-6.905508 -0.2186,-13.75 L 1196.5,30.5 l 8.7472,0.025 c 7.6224,0.02178 9.0262,0.303974 10.9167,2.194445 3.118,3.118027 2.8905,8.028097 -0.4972,10.729359 -3.1951,2.547626 -3.2659,3.456335 -0.6667,8.551197 2.5709,5.039327 2.5205,6.213018 -0.25,5.819551 -1.489,-0.211469 -2.9265,-1.711793 -4.25,-4.435803 C 1207.8628,47.956137 1206.1367,46 1203.9845,46 1201.7673,46 1201,47.949242 1201,53.581787 1201,57.356087 1200.7039,58 1198.9686,58 c -1.1172,0 -2.2568,-0.587461 -2.5323,-1.305469 z m 14.3412,-14.251235 c 2.9148,-2.041635 3.0192,-6.946536 0.1802,-8.465954 -1.1233,-0.601163 -3.7108,-0.954496 -5.75,-0.785183 -3.5114,0.291543 -3.7244,0.510066 -4.0222,4.127629 -0.173,2.100883 0.2196,4.463383 0.8724,5.25 1.5641,1.884636 5.9389,1.821173 8.7196,-0.126492 z"
       id="path22"
       inkscape:connector-curvature="0" />
    <path
       style="fill:#5e6a8b"
       d="m 140.25,251.32825 c -2.8875,-0.23802 -5.25,-0.79809 -5.25,-1.24459 0,-0.44649 -1.9125,-1.07686 -4.25,-1.40082 C 116.97163,246.77331 97.561397,238.65559 83.452586,228.90217 64.426134,215.7492 47.045459,193.43685 39.127438,172 36.33821,164.44858 33,152.03252 33,149.20973 c 0,-2.06855 0.40679,-2.29558 3.619655,-2.0201 3.588424,0.30769 3.635037,0.37077 5.402514,7.31037 11.323746,44.46017 46.115095,77.85817 89.665841,86.07483 17.6068,3.32185 40.19903,1.63475 56.62398,-4.22844 40.31306,-14.39052 69.15196,-49.85731 75.78786,-93.20577 L 265.34604,135 h 3.26796 c 1.79738,0 3.53464,0.43149 3.86057,0.95886 0.94651,1.53147 -2.20776,19.08814 -5.06594,28.1971 -8.39509,26.75496 -25.87311,50.42971 -48.77847,66.0726 -12.17146,8.31233 -38.49578,18.75867 -47.29683,18.76892 -1.19166,0.001 -2.31666,0.42973 -2.5,0.95188 -0.37541,1.06919 -20.53981,2.04195 -28.58333,1.37889 z M 136.5,231.55161 C 101.99949,226.1587 73.198065,204.1729 57.917504,171.56503 54.068087,163.35059 49.384533,148.28213 50.373393,147.29327 51.373384,146.29328 54,147.92217 54,149.5423 c 0,2.87039 5.049492,16.78482 8.694158,23.9577 6.595628,12.98053 16.284285,25.5078 19.712379,25.48777 2.449499,-0.0143 15.918716,-12.76674 15.212355,-14.4028 -0.257635,-0.59674 -2.067861,-4.99259 -4.022725,-9.76858 -1.954863,-4.77599 -4.703082,-9.8324 -6.107153,-11.23647 -2.376164,-2.37616 -2.447927,-2.71299 -1.036839,-4.86659 C 88.748927,155.20805 86.199741,152 81.11761,152 c -2.691694,0 -4.417334,-0.69014 -6.037296,-2.41451 l -2.268313,-2.41451 2.093999,-1.12067 c 1.1517,-0.61637 2.094,-1.50618 2.094,-1.97734 0,-0.47116 -2.125603,-3.22085 -4.723563,-6.1104 l -4.723562,-5.25374 -20.526438,0.87711 c -11.28954,0.4824 -26.338193,0.88542 -33.44145,0.89558 -13.09677565,0.0187 -15.231267,-0.60487 -12.3796299,-3.61679 0.7120536,-0.75208 2.9939115,-3.48191 5.0707954,-6.06628 4.9716555,-6.1865 14.5486415,-11.01215 23.0903165,-11.63475 3.373442,-0.24588 13.927077,0.12992 23.452522,0.83512 l 17.318992,1.28218 4.431008,-4.34871 C 79.412003,106.17923 80.075306,104.09396 77,103.28975 75.9,103.00209 75,102.43897 75,102.03836 75,100.32828 78.895863,98 81.757312,98 c 4.218887,0 6.547603,-2.511119 5.945557,-6.41126 -0.283841,-1.838769 0.08489,-3.728077 0.911157,-4.668572 0.763372,-0.868908 3.230262,-5.818908 5.481978,-11 L 98.190032,66.5 90.845016,59.770247 c -4.039759,-3.701365 -8.072492,-6.738865 -8.961629,-6.75 C 79.571191,52.991288 68.708978,67.084616 63.786732,76.5 c -2.300265,4.4 -5.395616,11.6 -6.878556,16 -1.7,5.044031 -3.289652,8.11947 -4.302216,8.32332 C 51.722682,101.00115 51,100.69951 51,100.153 51,98.309021 57.206677,81.539601 59.75442,76.5 79.141971,38.150168 121.10795,15.049002 162.62118,19.874556 205.06802,24.808633 239.47129,54.08819 251.46915,95.490302 254.78585,106.93553 255.85462,117 253.75332,117 c -1.10366,0 -1.72029,-1.58006 -2.24002,-5.73985 C 249.85471,97.985272 243.1098,80.030611 235.44159,68.47796 230.91944,61.665059 223.20151,52.999553 221.65733,53.001338 221.0208,53.002074 217.125,56.094615 213,59.873651 l -7.5,6.870976 2.37746,4.877686 c 5.30759,10.889268 9.46678,25.780538 10.68571,38.258387 0.59438,6.08449 0.47653,7.2995 -0.67108,6.91835 -0.87188,-0.28956 -1.64233,-2.69995 -2.06173,-6.4502 -1.01825,-9.10526 -4.47287,-22.629144 -7.85707,-30.758363 C 202.99103,67.622556 203.88664,67.976381 192.66991,73.544652 185.69124,77.009045 183,78.85665 183,80.183289 c 0,1.011033 0.64339,5.995897 1.42976,11.077476 C 186.46454,104.40966 187.37879,117 186.29883,117 c -0.50014,0 -1.4835,-5.2875 -2.18524,-11.75 -1.31152,-12.077991 -3.43764,-23.907382 -4.4852,-24.954939 -0.3257,-0.325704 -4.31283,0.214459 -8.86029,1.200362 -10.43253,2.261806 -27.68905,2.310507 -37.08015,0.104648 -9.248,-2.172246 -9.47126,-2.126984 -10.6044,2.149929 -1.72568,6.513369 -4.32536,28.15043 -3.68757,30.69156 0.71797,2.86064 2.60787,3.21547 20.97823,3.93872 l 11.87421,0.46749 4.79893,-4.48883 c 4.09565,-3.831 5.31683,-4.44268 8.33289,-4.17389 l 3.53397,0.31495 -4.45663,6.91296 -4.45662,6.91296 2.65488,4.58704 c 1.46018,2.52287 3.25996,5.47467 3.99952,6.55955 1.95025,2.86089 1.68143,3.52749 -1.42254,3.52749 -1.85084,0 -4.47062,-1.49014 -7.91135,-4.5 l -5.14417,-4.5 -11.33865,0.0876 c -6.23626,0.0482 -13.58865,0.38568 -16.33865,0.75 l -5,0.66239 0.24285,9.34637 c 0.2763,10.63384 2.81,29.10648 4.18016,30.47664 0.55282,0.55282 4.40797,0.27345 9.7458,-0.70623 11.04001,-2.02625 25.76537,-2.07409 35.99322,-0.11695 4.31088,0.8249 8.37932,1.4999 9.04097,1.5 1.69569,2.4e-4 3.10016,-5.80777 4.35264,-17.99983 1.80249,-17.54604 2.03249,-19 3.00563,-19 1.3544,0 1.12515,6.89764 -0.64811,19.5 -0.85129,6.05 -1.78854,12.80176 -2.08279,15.00392 l -0.535,4.00391 9.37253,4.74609 c 5.1549,2.61034 9.69446,4.74608 10.08792,4.74608 1.39143,0 6.79883,-12.10167 9.2685,-20.74271 1.37658,-4.81651 3.07923,-12.77645 3.78366,-17.68875 0.7234,-5.04462 1.80544,-9.10635 2.4864,-9.33333 4.04003,-1.34668 -2.39149,29.93903 -8.79132,42.76479 -3.5815,7.17761 -3.5776,7.19266 3.72516,14.34408 4.00376,3.9208 7.63696,6.63646 8.88839,6.64369 2.90383,0.0168 13.18996,-13.09714 18.81523,-23.98777 5.38387,-10.42327 8.24557,-18.73577 10.50009,-30.5 1.20812,-6.30406 2.15063,-9 3.14642,-9 1.7877,0 1.49572,3.9928 -1.11209,15.2074 -6.99299,30.07265 -25.32241,54.49826 -52.17726,69.53094 -19.00009,10.63579 -42.34353,14.74365 -64.289,11.31327 z m 34.32313,-4.0144 c 10.24561,-2.15524 17.62949,-4.9334 17.98238,-6.76583 0.18688,-0.97036 -1.48908,-2.83363 -4.26938,-4.74652 -17.94414,-12.34589 -37.51698,-14.12804 -56.03613,-5.10219 -9.63959,4.69813 -14.07007,8.14937 -13.23966,10.31338 0.66171,1.7244 7.12046,4.10794 16.85264,6.21931 8.64218,1.87489 29.97191,1.91999 38.71015,0.0818 z M 113.50304,215.75 c 5.14118,-3.78117 5.56173,-5.84891 1.74696,-8.58933 -1.5125,-1.08654 -5.225,-5.1636 -8.25,-9.06014 -3.57131,-4.60025 -6.20134,-7.08215 -7.5,-7.07756 -2.110699,0.007 -13.5,9.92111 -13.5,11.75089 0,2.2431 19.17983,16.19919 22.29204,16.22067 0.43562,0.003 2.78057,-1.45703 5.211,-3.24453 z m 92.02584,-2.58798 c 4.93412,-3.21089 9.86036,-6.84625 10.94721,-8.07857 l 1.97608,-2.24058 -6.12653,-5.92143 C 208.89744,193.608 205.29556,191 204.1476,191 c -1.28255,0 -3.16108,1.59303 -5.01167,4.25 -1.62808,2.3375 -5.2497,6.48308 -8.04804,9.21241 -2.79834,2.72932 -5.08789,5.6864 -5.08789,6.57129 0,1.58652 7.52911,7.84968 9.52888,7.92668 0.56588,0.0218 5.06588,-2.58747 10,-5.79836 z M 127.7258,207.25 c 2.33575,-0.9625 4.46026,-2.30312 4.72112,-2.97915 0.26087,-0.67603 -1.0275,-4.50103 -2.86303,-8.5 -1.83554,-3.99897 -4.10503,-9.40835 -5.04332,-12.02085 -1.70696,-4.75271 -3.00416,-5.5478 -6.30414,-3.86398 -0.95504,0.4873 -4.11323,1.92092 -7.0182,3.18581 -7.89959,3.43966 -8.1345,4.08047 -3.80186,10.37127 3.65961,5.31359 13.70958,15.5569 15.26326,15.5569 0.43965,0 2.71042,-0.7875 5.04617,-1.75 z m 59.36581,-2.93246 C 193.47401,198.34756 199,190.8352 199,188.12859 c 0,-1.60441 -1.68202,-2.9505 -7.08978,-5.6738 -3.89938,-1.9637 -7.99888,-3.43186 -9.10999,-3.26258 -1.51124,0.23025 -2.70919,2.19733 -4.75494,7.80779 -1.5041,4.125 -3.70461,9.39457 -4.89001,11.71016 -1.1854,2.31559 -2.15528,4.66106 -2.15528,5.21216 0,1.02915 7.47874,4.8426 9.79284,4.99342 0.71106,0.0463 3.54551,-2.02285 6.29877,-4.5982 z m -39.13717,-1.9747 c 4.15006,-0.30966 9.99172,-0.1097 12.98147,0.44435 2.98975,0.55405 5.98031,0.79845 6.64569,0.54313 2.83466,-1.08777 11.32633,-22.52192 10.14363,-25.60397 -1.06745,-2.78173 -10.42875,-4.23093 -26.72523,-4.13725 -10.73116,0.0617 -16.8845,0.54218 -20,1.56175 -4.35002,1.42356 -4.49698,1.6039 -4.40948,5.4109 0.10524,4.57876 5.51338,18.09927 8.53839,21.34625 1.25649,1.34868 2.70754,1.985 3.67765,1.61273 0.88128,-0.33817 4.99783,-0.86822 9.14788,-1.17789 z M 105.53518,181.38499 C 106.89083,180.49673 108,179.20818 108,178.52153 c 0,-0.68665 -2.65971,-4.12239 -5.91047,-7.63499 -4.657008,-5.03212 -6.174556,-6.13084 -7.155725,-5.18081 -0.991097,0.95963 -0.793858,2.38834 0.96638,7 2.55011,6.68104 4.711555,10.29427 6.158055,10.29427 0.55667,0 2.12129,-0.72675 3.47694,-1.61501 z m 15.07638,-7.81511 c 0.30183,-0.78657 -0.17625,-5.99059 -1.06241,-11.56449 -0.88616,-5.57391 -1.8902,-14.38165 -2.23119,-19.57277 -0.3815,-5.80775 -1.11723,-9.85107 -1.91266,-10.51121 -1.94275,-1.61234 -24.411108,-0.0699 -25.099126,1.7231 -0.287476,0.74915 5.020411,10.36061 11.795306,21.35879 11.31019,18.36066 12.54884,19.9967 15.13964,19.9967 1.55191,0 3.06861,-0.64356 3.37044,-1.43012 z m -4.81083,-57.82978 c 0.5751,-0.69294 1.31812,-4.18044 1.65116,-7.75 0.33304,-3.56955 1.34641,-11.589838 2.25194,-17.822851 1.42019,-9.775581 1.4506,-11.459573 0.22129,-12.255728 -3.43013,-2.221514 -5.2906,-0.249503 -16.56626,17.559422 -6.258025,9.884017 -11.226477,18.434017 -11.041,18.999997 0.709781,2.16589 21.79298,3.30536 23.48287,1.26916 z M 103.18959,79.794853 C 105.83532,76.932022 108,74.058776 108,73.409863 c 0,-1.930115 -5.14473,-4.808339 -6.76636,-3.785443 -1.899919,1.198439 -6.499455,12.240494 -5.827812,13.990767 0.939144,2.447371 2.864847,1.502221 7.783762,-3.820334 z m 65.41189,-1.88591 c 3.44593,-0.600081 7.07487,-1.683017 8.06432,-2.406523 1.62261,-1.186481 1.67615,-1.790386 0.54597,-6.158944 C 176.52259,66.679564 174.28051,61.125 172.22936,57 L 168.5,49.5 151.81877,49.45528 135.13753,49.41056 133.06282,53.102004 C 130.10302,58.368263 126,69.616163 126,72.463812 c 0,1.329985 0.5625,2.770236 1.25,3.200558 4.8136,3.012943 29.30514,4.342353 41.35148,2.244573 z M 126.40732,63.830807 c 1.79122,-4.768056 4.04154,-9.866911 5.00071,-11.330788 2.33514,-3.563879 1.48381,-5.217978 -3.91467,-7.60598 -4.5233,-2.000872 -4.53455,-2.000895 -7.32385,-0.01474 -6.43798,4.584246 -16.9594,18.033627 -15.70079,20.070097 1.36084,2.201889 6.6457,4.080789 10.74495,3.820098 3.17842,-0.202131 4.26812,0.105435 4.35966,1.23051 0.23273,2.860463 0.43452,3.145038 2.00194,2.823324 0.94843,-0.194664 2.87124,-3.773057 4.83205,-8.992517 z M 192,69.608484 c 8.63978,-4.45483 8.80956,-6.025533 1.59654,-14.770207 -3.01882,-3.659862 -7.05373,-7.847949 -8.96646,-9.306861 l -3.4777,-2.652566 -5.07619,2.183719 c -5.34032,2.297346 -5.99404,3.595679 -3.63661,7.222614 1.21353,1.867032 5.77896,12.835398 7.89384,18.964817 0.89866,2.604554 4.38229,2.114399 11.66658,-1.641516 z M 104.73196,56.75 c 1.68905,-2.3375 5.42555,-6.581033 8.30334,-9.430073 3.39028,-3.356409 5.02568,-5.718629 4.64532,-6.709825 -0.97131,-2.531193 -8.64196,-7.558658 -10.50038,-6.882112 C 101.79513,35.68841 86,47.269176 86,49.257047 c 0,1.906102 11.375573,11.742166 13.58048,11.742571 1.29949,2.39e-4 3.2333,-1.595028 5.15148,-4.249618 z M 211.1469,56.467287 c 6.57833,-5.615164 7.14456,-6.606154 5.2886,-9.255912 -1.90357,-2.717728 -17.7495,-13.283998 -20.19825,-13.468457 -2.46124,-0.185399 -10.18865,5.332366 -10.2159,7.294674 -0.0117,0.845675 2.2682,3.770675 5.06654,6.5 2.79834,2.729324 6.41996,6.874908 8.04804,9.212408 1.69248,2.429955 3.7611,4.25 4.83046,4.25 1.02866,0 4.2599,-2.039721 7.18051,-4.532713 z M 169.29234,43.954496 C 177.67928,41.159384 188.5,34.131587 188.5,31.479585 c 0,-1.474984 -1.60293,-2.395339 -7.25454,-4.165349 -18.62759,-5.833907 -38.75034,-5.888421 -58.05576,-0.157275 -4.06269,1.20608 -7.64548,2.867206 -7.96175,3.691392 -1.25037,3.258425 11.35435,11.047996 22.96265,14.190644 9.4074,2.546813 21.46756,2.126282 31.10174,-1.084501 z M 400.66632,227.2593 C 400.41155,226.84168 406.17137,193.2 413.46591,152.5 420.76045,111.8 426.5166,77.9375 426.25736,77.25 425.8941,76.286624 418.60117,76 394.45203,76 c -17.2337,0 -31.54728,-0.345099 -31.80796,-0.766887 -0.26068,-0.421788 1.73536,-13.359288 4.43563,-28.75 C 369.77998,31.092401 371.9917,18.3875 371.99465,18.25 371.99759,18.1125 422.85,18 485,18 c 95.46752,0 113,0.214337 113,1.38144 0,2.455899 -9.80779,54.498546 -10.47367,55.575957 C 587.10282,75.642643 576.79747,76 557.46004,76 H 528.0381 l -0.56388,2.25 c -0.31014,1.2375 -6.52253,35.325 -13.80532,75.75 l -13.24144,73.5 -49.64897,0.2593 c -27.30693,0.14261 -49.85741,-0.0824 -50.11217,-0.5 z m 191.3046,-0.009 C 591.85881,224.35917 616.5178,77.237164 617.27989,76.25 617.95169,75.379788 621.70173,75 629.62244,75 636.43003,75 641,74.604117 641,74.014395 c 0,-0.542082 -2.8125,-2.405191 -6.25,-4.14024 -10.91944,-5.511495 -15.54742,-10.194218 -17.78466,-17.995009 -2.24559,-7.829909 4.07307,-17.969468 14.71373,-23.611137 25.70235,-13.627367 68.02953,-10.652449 85.35911,5.999368 12.44651,11.959731 7.78767,26.509246 -11.42443,35.678334 C 701.97619,71.68176 699,73.529177 699,74.051082 699,74.574694 702.78326,75 707.44098,75 c 4.64254,0 8.7192,0.450157 9.05924,1.000348 0.69829,1.12987 -23.06475,146.261352 -24.5192,149.749652 l -0.93814,2.25 h -49.52144 c -27.23679,0 -49.53453,-0.3375 -49.55052,-0.75 z m 131.01411,-1 c -0.0318,-3.72086 35.41569,-204.819161 36.31154,-206 1.39138,-1.834002 98.54647,-1.822608 99.25034,0.01164 0.26627,0.693901 -2.67285,19.179564 -6.53139,41.079251 C 844.60043,103.4263 844.51754,104 845.8516,104 c 0.46838,0 12.24423,-11.8125 26.16855,-26.25 13.92432,-14.4375 31.61966,-32.6625 39.32297,-40.5 L 925.34915,23 h 56.40876 c 33.91799,0 56.27589,0.36688 56.07539,0.920167 -0.1833,0.506092 -22.045,22.971411 -48.58149,49.92293 -36.49145,37.062153 -48.08982,49.415483 -47.59824,50.696493 0.35747,0.93156 14.34238,23.74754 31.07758,50.70218 16.7352,26.95464 30.66505,49.62714 30.95525,50.38333 0.444,1.15704 -8.90222,1.3749 -58.98317,1.3749 h -59.51074 l -22.74847,-37.25 c -12.51165,-20.4875 -23.12996,-37.6775 -23.59624,-38.2 -0.53356,-0.59789 -1.22066,-0.57712 -1.8538,0.056 -0.55331,0.55331 -3.93486,17.57187 -7.51454,37.81902 -3.57969,20.24715 -6.75354,37.20944 -7.053,37.69398 -0.30206,0.48877 -22.55646,0.881 -49.98546,0.881 -46.41428,0 -49.4419,-0.10713 -49.45595,-1.75 z m 309.64137,0.9545 c -0.5757,-0.93154 23.8282,-149.512978 24.8207,-151.118855 C 1057.8661,75.407674 1062.3921,75 1069.5,75 c 6.2601,0 11.6081,-0.365939 11.8845,-0.813197 0.2765,-0.447258 -2.4088,-2.248885 -5.9672,-4.003615 -7.5822,-3.738972 -15.1516,-10.348563 -17.0649,-14.901069 -6.0625,-14.425315 7.4654,-28.350649 32.9266,-33.893939 9.4813,-2.064235 28.9607,-2.064235 38.442,0 25.449,5.540623 39.3656,20.090405 32.6839,34.170995 -2.3247,4.898954 -9.6109,11.174353 -16.9759,14.620838 -3.5366,1.654979 -6.1784,3.416514 -5.8706,3.91452 0.3078,0.498007 4.3581,0.905467 9.0006,0.905467 7.577,0 8.441,0.191297 8.441,1.868932 0,2.18068 -23.8175,146.782768 -24.6046,149.381068 -0.4956,1.63588 -3.7499,1.75 -49.9038,1.75 -27.1554,0 -49.5948,-0.35798 -49.8652,-0.7955 z M 189.6744,127.34107 C 189.30348,126.97015 189,126.29167 189,125.83333 189,125.375 216.4875,125 250.08333,125 c 48.42217,0 60.99699,0.2591 60.66677,1.25 -0.32579,0.97763 -13.48868,1.30616 -60.40893,1.50774 -32.9958,0.14175 -60.29584,-0.0457 -60.66677,-0.41667 z m 74.02109,-20.33213 C 256.18492,61.2543 223.22268,24.670756 179,13.008613 165.96373,9.5707655 143.93764,9.1062809 130.00778,11.975468 88.123346,20.602571 53.19721,53.901792 42.599547,95.312091 41.285984,100.44483 41.230539,100.5 37.385932,100.5 c -3.571771,0 -3.857603,-0.20211 -3.535519,-2.5 0.643842,-4.593454 5.32093,-18.41686 8.775621,-25.936858 C 50.86362,54.131981 67.488894,34.133519 83.169654,23.293418 96.775656,13.887596 113.05587,6.8298688 128,3.8587639 c 3.575,-0.7107607 6.81199,-1.7425324 7.19331,-2.2928259 1.041,-1.50227361 33.07462,-1.26215305 33.57924,0.2517063 0.21676,0.6502956 1.36912,1.1834907 2.56078,1.1848779 4.62915,0.00539 21.54086,5.2843472 30.45162,9.5054178 13.12494,6.217342 22.26992,12.546041 32.78407,22.687918 19.83133,19.129161 32.23804,42.715696 36.91795,70.185132 C 273.54055,117.4348 273.62733,117 269.16776,117 h -3.83225 z M 1198.7027,69.618518 c -9.9772,-3.718817 -16.8718,-11.941992 -18.2178,-21.728316 -1.4029,-10.200179 5.2099,-22.143583 14.8421,-26.806448 4.925,-2.384147 13.632,-2.775549 19.9088,-0.894956 5.0694,1.518826 13.3028,8.89319 14.9188,13.362282 0.686,1.896906 1.5493,3.44892 1.9185,3.44892 0.3692,0 0.9591,1.8 1.3109,4 0.7187,4.494496 -0.2238,12.217012 -1.4022,11.488734 -0.4227,-0.261202 -1.0286,0.561775 -1.3467,1.828838 -2.7804,11.07812 -20.4923,19.565045 -31.9324,15.300946 z m 13.3318,-1.611602 c 18.6982,-5.194575 24.6398,-28.427768 10.455,-40.882012 C 1217.3332,22.597617 1213.1625,21 1206.5,21 c -6.6835,0 -11.8386,1.988087 -16.3376,6.300681 -10.1545,9.733689 -10.4715,24.053155 -0.7537,34.051979 6.2178,6.397632 14.6369,8.873682 22.6258,6.654256 z m -15.5982,-11.312385 c -0.2756,-0.718008 -0.3739,-6.905508 -0.2186,-13.75 L 1196.5,30.5 l 8.7472,0.025 c 7.6224,0.02178 9.0262,0.303974 10.9167,2.194445 3.118,3.118027 2.8905,8.028097 -0.4972,10.729359 -3.1951,2.547626 -3.2659,3.456335 -0.6667,8.551197 2.5709,5.039327 2.5205,6.213018 -0.25,5.819551 -1.489,-0.211469 -2.9265,-1.711793 -4.25,-4.435803 C 1207.8628,47.956137 1206.1367,46 1203.9845,46 1201.7673,46 1201,47.949242 1201,53.581787 1201,57.356087 1200.7039,58 1198.9686,58 c -1.1172,0 -2.2568,-0.587461 -2.5323,-1.305469 z m 14.3412,-14.251235 c 2.9148,-2.041635 3.0192,-6.946536 0.1802,-8.465954 -1.1233,-0.601163 -3.7108,-0.954496 -5.75,-0.785183 -3.5114,0.291543 -3.7244,0.510066 -4.0222,4.127629 -0.173,2.100883 0.2196,4.463383 0.8724,5.25 1.5641,1.884636 5.9389,1.821173 8.7196,-0.126492 z"
       id="path20"
       inkscape:connector-curvature="0" />
    <path
       style="fill:#ec1d25"
       d="m 140.25,251.32825 c -2.8875,-0.23802 -5.25,-0.79809 -5.25,-1.24459 0,-0.44649 -1.9125,-1.07686 -4.25,-1.40082 C 116.97163,246.77331 97.561397,238.65559 83.452586,228.90217 64.426134,215.7492 47.045459,193.43685 39.127438,172 36.33821,164.44858 33,152.03252 33,149.20973 c 0,-2.06855 0.40679,-2.29558 3.619655,-2.0201 3.588424,0.30769 3.635037,0.37077 5.402514,7.31037 11.323746,44.46017 46.115095,77.85817 89.665841,86.07483 17.6068,3.32185 40.19903,1.63475 56.62398,-4.22844 40.31306,-14.39052 69.15196,-49.85731 75.78786,-93.20577 L 265.34604,135 h 3.26796 c 1.79738,0 3.53464,0.43149 3.86057,0.95886 0.94651,1.53147 -2.20776,19.08814 -5.06594,28.1971 -8.39509,26.75496 -25.87311,50.42971 -48.77847,66.0726 -12.17146,8.31233 -38.49578,18.75867 -47.29683,18.76892 -1.19166,0.001 -2.31666,0.42973 -2.5,0.95188 -0.37541,1.06919 -20.53981,2.04195 -28.58333,1.37889 z M 136.5,231.55161 C 101.99949,226.1587 73.198065,204.1729 57.917504,171.56503 54.068087,163.35059 49.384533,148.28213 50.373393,147.29327 51.373384,146.29328 54,147.92217 54,149.5423 c 0,2.87039 5.049492,16.78482 8.694158,23.9577 6.595628,12.98053 16.284285,25.5078 19.712379,25.48777 2.449499,-0.0143 15.918716,-12.76674 15.212355,-14.4028 -0.257635,-0.59674 -2.067861,-4.99259 -4.022725,-9.76858 -1.954863,-4.77599 -4.703082,-9.8324 -6.107153,-11.23647 -2.376164,-2.37616 -2.447927,-2.71299 -1.036839,-4.86659 C 88.748927,155.20805 86.199741,152 81.11761,152 c -2.691694,0 -4.417334,-0.69014 -6.037296,-2.41451 l -2.268313,-2.41451 2.093999,-1.12067 c 1.1517,-0.61637 2.094,-1.50618 2.094,-1.97734 0,-0.47116 -2.125603,-3.22085 -4.723563,-6.1104 l -4.723562,-5.25374 -20.526438,0.87711 c -11.28954,0.4824 -26.338193,0.88542 -33.44145,0.89558 -13.09677565,0.0187 -15.231267,-0.60487 -12.3796299,-3.61679 0.7120536,-0.75208 2.9939115,-3.48191 5.0707954,-6.06628 4.9716555,-6.1865 14.5486415,-11.01215 23.0903165,-11.63475 3.373442,-0.24588 13.927077,0.12992 23.452522,0.83512 l 17.318992,1.28218 4.431008,-4.34871 C 79.412003,106.17923 80.075306,104.09396 77,103.28975 75.9,103.00209 75,102.43897 75,102.03836 75,100.32828 78.895863,98 81.757312,98 c 4.218887,0 6.547603,-2.511119 5.945557,-6.41126 -0.283841,-1.838769 0.08489,-3.728077 0.911157,-4.668572 0.763372,-0.868908 3.230262,-5.818908 5.481978,-11 L 98.190032,66.5 90.845016,59.770247 c -4.039759,-3.701365 -8.072492,-6.738865 -8.961629,-6.75 C 79.571191,52.991288 68.708978,67.084616 63.786732,76.5 c -2.300265,4.4 -5.395616,11.6 -6.878556,16 -1.7,5.044031 -3.289652,8.11947 -4.302216,8.32332 C 51.722682,101.00115 51,100.69951 51,100.153 51,98.309021 57.206677,81.539601 59.75442,76.5 79.141971,38.150168 121.10795,15.049002 162.62118,19.874556 205.06802,24.808633 239.47129,54.08819 251.46915,95.490302 254.78585,106.93553 255.85462,117 253.75332,117 c -1.10366,0 -1.72029,-1.58006 -2.24002,-5.73985 C 249.85471,97.985272 243.1098,80.030611 235.44159,68.47796 230.91944,61.665059 223.20151,52.999553 221.65733,53.001338 221.0208,53.002074 217.125,56.094615 213,59.873651 l -7.5,6.870976 2.37746,4.877686 c 5.30759,10.889268 9.46678,25.780538 10.68571,38.258387 0.59438,6.08449 0.47653,7.2995 -0.67108,6.91835 -0.87188,-0.28956 -1.64233,-2.69995 -2.06173,-6.4502 -1.01825,-9.10526 -4.47287,-22.629144 -7.85707,-30.758363 C 202.99103,67.622556 203.88664,67.976381 192.66991,73.544652 185.69124,77.009045 183,78.85665 183,80.183289 c 0,1.011033 0.64339,5.995897 1.42976,11.077476 C 186.46454,104.40966 187.37879,117 186.29883,117 c -0.50014,0 -1.4835,-5.2875 -2.18524,-11.75 -1.31152,-12.077991 -3.43764,-23.907382 -4.4852,-24.954939 -0.3257,-0.325704 -4.31283,0.214459 -8.86029,1.200362 -10.43253,2.261806 -27.68905,2.310507 -37.08015,0.104648 -9.248,-2.172246 -9.47126,-2.126984 -10.6044,2.149929 -1.72568,6.513369 -4.32536,28.15043 -3.68757,30.69156 0.71797,2.86064 2.60787,3.21547 20.97823,3.93872 l 11.87421,0.46749 4.79893,-4.48883 c 4.09565,-3.831 5.31683,-4.44268 8.33289,-4.17389 l 3.53397,0.31495 -4.45663,6.91296 -4.45662,6.91296 2.65488,4.58704 c 1.46018,2.52287 3.25996,5.47467 3.99952,6.55955 1.95025,2.86089 1.68143,3.52749 -1.42254,3.52749 -1.85084,0 -4.47062,-1.49014 -7.91135,-4.5 l -5.14417,-4.5 -11.33865,0.0876 c -6.23626,0.0482 -13.58865,0.38568 -16.33865,0.75 l -5,0.66239 0.24285,9.34637 c 0.2763,10.63384 2.81,29.10648 4.18016,30.47664 0.55282,0.55282 4.40797,0.27345 9.7458,-0.70623 11.04001,-2.02625 25.76537,-2.07409 35.99322,-0.11695 4.31088,0.8249 8.37932,1.4999 9.04097,1.5 1.69569,2.4e-4 3.10016,-5.80777 4.35264,-17.99983 1.80249,-17.54604 2.03249,-19 3.00563,-19 1.3544,0 1.12515,6.89764 -0.64811,19.5 -0.85129,6.05 -1.78854,12.80176 -2.08279,15.00392 l -0.535,4.00391 9.37253,4.74609 c 5.1549,2.61034 9.69446,4.74608 10.08792,4.74608 1.39143,0 6.79883,-12.10167 9.2685,-20.74271 1.37658,-4.81651 3.07923,-12.77645 3.78366,-17.68875 0.7234,-5.04462 1.80544,-9.10635 2.4864,-9.33333 4.04003,-1.34668 -2.39149,29.93903 -8.79132,42.76479 -3.5815,7.17761 -3.5776,7.19266 3.72516,14.34408 4.00376,3.9208 7.63696,6.63646 8.88839,6.64369 2.90383,0.0168 13.18996,-13.09714 18.81523,-23.98777 5.38387,-10.42327 8.24557,-18.73577 10.50009,-30.5 1.20812,-6.30406 2.15063,-9 3.14642,-9 1.7877,0 1.49572,3.9928 -1.11209,15.2074 -6.99299,30.07265 -25.32241,54.49826 -52.17726,69.53094 -19.00009,10.63579 -42.34353,14.74365 -64.289,11.31327 z m 34.32313,-4.0144 c 10.24561,-2.15524 17.62949,-4.9334 17.98238,-6.76583 0.18688,-0.97036 -1.48908,-2.83363 -4.26938,-4.74652 -17.94414,-12.34589 -37.51698,-14.12804 -56.03613,-5.10219 -9.63959,4.69813 -14.07007,8.14937 -13.23966,10.31338 0.66171,1.7244 7.12046,4.10794 16.85264,6.21931 8.64218,1.87489 29.97191,1.91999 38.71015,0.0818 z M 113.50304,215.75 c 5.14118,-3.78117 5.56173,-5.84891 1.74696,-8.58933 -1.5125,-1.08654 -5.225,-5.1636 -8.25,-9.06014 -3.57131,-4.60025 -6.20134,-7.08215 -7.5,-7.07756 -2.110699,0.007 -13.5,9.92111 -13.5,11.75089 0,2.2431 19.17983,16.19919 22.29204,16.22067 0.43562,0.003 2.78057,-1.45703 5.211,-3.24453 z m 92.02584,-2.58798 c 4.93412,-3.21089 9.86036,-6.84625 10.94721,-8.07857 l 1.97608,-2.24058 -6.12653,-5.92143 C 208.89744,193.608 205.29556,191 204.1476,191 c -1.28255,0 -3.16108,1.59303 -5.01167,4.25 -1.62808,2.3375 -5.2497,6.48308 -8.04804,9.21241 -2.79834,2.72932 -5.08789,5.6864 -5.08789,6.57129 0,1.58652 7.52911,7.84968 9.52888,7.92668 0.56588,0.0218 5.06588,-2.58747 10,-5.79836 z M 127.7258,207.25 c 2.33575,-0.9625 4.46026,-2.30312 4.72112,-2.97915 0.26087,-0.67603 -1.0275,-4.50103 -2.86303,-8.5 -1.83554,-3.99897 -4.10503,-9.40835 -5.04332,-12.02085 -1.70696,-4.75271 -3.00416,-5.5478 -6.30414,-3.86398 -0.95504,0.4873 -4.11323,1.92092 -7.0182,3.18581 -7.89959,3.43966 -8.1345,4.08047 -3.80186,10.37127 3.65961,5.31359 13.70958,15.5569 15.26326,15.5569 0.43965,0 2.71042,-0.7875 5.04617,-1.75 z m 59.36581,-2.93246 C 193.47401,198.34756 199,190.8352 199,188.12859 c 0,-1.60441 -1.68202,-2.9505 -7.08978,-5.6738 -3.89938,-1.9637 -7.99888,-3.43186 -9.10999,-3.26258 -1.51124,0.23025 -2.70919,2.19733 -4.75494,7.80779 -1.5041,4.125 -3.70461,9.39457 -4.89001,11.71016 -1.1854,2.31559 -2.15528,4.66106 -2.15528,5.21216 0,1.02915 7.47874,4.8426 9.79284,4.99342 0.71106,0.0463 3.54551,-2.02285 6.29877,-4.5982 z m -39.13717,-1.9747 c 4.15006,-0.30966 9.99172,-0.1097 12.98147,0.44435 2.98975,0.55405 5.98031,0.79845 6.64569,0.54313 2.83466,-1.08777 11.32633,-22.52192 10.14363,-25.60397 -1.06745,-2.78173 -10.42875,-4.23093 -26.72523,-4.13725 -10.73116,0.0617 -16.8845,0.54218 -20,1.56175 -4.35002,1.42356 -4.49698,1.6039 -4.40948,5.4109 0.10524,4.57876 5.51338,18.09927 8.53839,21.34625 1.25649,1.34868 2.70754,1.985 3.67765,1.61273 0.88128,-0.33817 4.99783,-0.86822 9.14788,-1.17789 z M 105.53518,181.38499 C 106.89083,180.49673 108,179.20818 108,178.52153 c 0,-0.68665 -2.65971,-4.12239 -5.91047,-7.63499 -4.657008,-5.03212 -6.174556,-6.13084 -7.155725,-5.18081 -0.991097,0.95963 -0.793858,2.38834 0.96638,7 2.55011,6.68104 4.711555,10.29427 6.158055,10.29427 0.55667,0 2.12129,-0.72675 3.47694,-1.61501 z m 15.07638,-7.81511 c 0.30183,-0.78657 -0.17625,-5.99059 -1.06241,-11.56449 -0.88616,-5.57391 -1.8902,-14.38165 -2.23119,-19.57277 -0.3815,-5.80775 -1.11723,-9.85107 -1.91266,-10.51121 -1.94275,-1.61234 -24.411108,-0.0699 -25.099126,1.7231 -0.287476,0.74915 5.020411,10.36061 11.795306,21.35879 11.31019,18.36066 12.54884,19.9967 15.13964,19.9967 1.55191,0 3.06861,-0.64356 3.37044,-1.43012 z m -4.81083,-57.82978 c 0.5751,-0.69294 1.31812,-4.18044 1.65116,-7.75 0.33304,-3.56955 1.34641,-11.589838 2.25194,-17.822851 1.42019,-9.775581 1.4506,-11.459573 0.22129,-12.255728 -3.43013,-2.221514 -5.2906,-0.249503 -16.56626,17.559422 -6.258025,9.884017 -11.226477,18.434017 -11.041,18.999997 0.709781,2.16589 21.79298,3.30536 23.48287,1.26916 z M 103.18959,79.794853 C 105.83532,76.932022 108,74.058776 108,73.409863 c 0,-1.930115 -5.14473,-4.808339 -6.76636,-3.785443 -1.899919,1.198439 -6.499455,12.240494 -5.827812,13.990767 0.939144,2.447371 2.864847,1.502221 7.783762,-3.820334 z m 65.41189,-1.88591 c 3.44593,-0.600081 7.07487,-1.683017 8.06432,-2.406523 1.62261,-1.186481 1.67615,-1.790386 0.54597,-6.158944 C 176.52259,66.679564 174.28051,61.125 172.22936,57 L 168.5,49.5 151.81877,49.45528 135.13753,49.41056 133.06282,53.102004 C 130.10302,58.368263 126,69.616163 126,72.463812 c 0,1.329985 0.5625,2.770236 1.25,3.200558 4.8136,3.012943 29.30514,4.342353 41.35148,2.244573 z M 126.40732,63.830807 c 1.79122,-4.768056 4.04154,-9.866911 5.00071,-11.330788 2.33514,-3.563879 1.48381,-5.217978 -3.91467,-7.60598 -4.5233,-2.000872 -4.53455,-2.000895 -7.32385,-0.01474 -6.43798,4.584246 -16.9594,18.033627 -15.70079,20.070097 1.36084,2.201889 6.6457,4.080789 10.74495,3.820098 3.17842,-0.202131 4.26812,0.105435 4.35966,1.23051 0.23273,2.860463 0.43452,3.145038 2.00194,2.823324 0.94843,-0.194664 2.87124,-3.773057 4.83205,-8.992517 z M 192,69.608484 c 8.63978,-4.45483 8.80956,-6.025533 1.59654,-14.770207 -3.01882,-3.659862 -7.05373,-7.847949 -8.96646,-9.306861 l -3.4777,-2.652566 -5.07619,2.183719 c -5.34032,2.297346 -5.99404,3.595679 -3.63661,7.222614 1.21353,1.867032 5.77896,12.835398 7.89384,18.964817 0.89866,2.604554 4.38229,2.114399 11.66658,-1.641516 z M 104.73196,56.75 c 1.68905,-2.3375 5.42555,-6.581033 8.30334,-9.430073 3.39028,-3.356409 5.02568,-5.718629 4.64532,-6.709825 -0.97131,-2.531193 -8.64196,-7.558658 -10.50038,-6.882112 C 101.79513,35.68841 86,47.269176 86,49.257047 c 0,1.906102 11.375573,11.742166 13.58048,11.742571 1.29949,2.39e-4 3.2333,-1.595028 5.15148,-4.249618 z M 211.1469,56.467287 c 6.57833,-5.615164 7.14456,-6.606154 5.2886,-9.255912 -1.90357,-2.717728 -17.7495,-13.283998 -20.19825,-13.468457 -2.46124,-0.185399 -10.18865,5.332366 -10.2159,7.294674 -0.0117,0.845675 2.2682,3.770675 5.06654,6.5 2.79834,2.729324 6.41996,6.874908 8.04804,9.212408 1.69248,2.429955 3.7611,4.25 4.83046,4.25 1.02866,0 4.2599,-2.039721 7.18051,-4.532713 z M 169.29234,43.954496 C 177.67928,41.159384 188.5,34.131587 188.5,31.479585 c 0,-1.474984 -1.60293,-2.395339 -7.25454,-4.165349 -18.62759,-5.833907 -38.75034,-5.888421 -58.05576,-0.157275 -4.06269,1.20608 -7.64548,2.867206 -7.96175,3.691392 -1.25037,3.258425 11.35435,11.047996 22.96265,14.190644 9.4074,2.546813 21.46756,2.126282 31.10174,-1.084501 z M 401,226.45333 c 0,-0.30067 5.86229,-33.26317 13.0273,-73.25 C 421.19232,113.2165 426.92982,79.375 426.7773,78 L 426.5,75.5 394.75,75.235953 C 377.2875,75.090727 363,74.663009 363,74.285469 363,71.157319 372.4934,20.213854 373.25595,19.25 374.0365,18.263401 397.7145,18 485.62244,18 H 597 l -0.0442,2.75 c -0.0243,1.5125 -2.18973,14.225 -4.81203,28.25 l -4.76783,25.5 -29.6062,0.5 c -16.28342,0.275 -29.88318,0.777677 -30.22169,1.117059 C 527.07219,76.594118 500,224.38504 500,226.50568 500,226.77755 477.725,227 450.5,227 423.275,227 401,226.754 401,226.45333 Z m 192,-1.03207 c 0,-0.87868 5.4,-34.38685 12,-74.46262 6.6,-40.07576 12,-73.32264 12,-73.881953 0,-0.620999 4.93225,-1.125901 12.6682,-1.29681 8.77507,-0.193866 12.79109,-0.649946 13.06807,-1.484076 0.22981,-0.692093 -2.71226,-2.690862 -6.9182,-4.700042 C 626.56818,65.177082 621.74175,61.163703 619.08979,55.685486 614.02311,45.219112 619.35328,35.393643 634.14976,27.9244 667.47381,11.102474 723,23.750209 723,48.162674 c 0,2.715155 -0.64587,6.185617 -1.43526,7.712137 -2.35084,4.546011 -9.3873,10.173341 -17.28151,13.820693 -4.23161,1.955123 -7.241,3.934319 -7.01581,4.6141 0.25707,0.775971 3.5865,1.290495 9.56347,1.477922 L 716,76.075052 715.9108,78.787526 C 715.86173,80.279387 710.34923,114.125 703.6608,154 L 691.5,226.5 642.25,226.75942 C 597.69353,226.99412 593,226.8666 593,225.42126 Z M 723.49139,224.75 c 0.29122,-1.2375 8.42896,-47.45266 18.08386,-102.70035 C 751.23014,66.801963 759.352,21.239463 759.62382,20.799654 759.89564,20.359844 782.14148,20 809.05902,20 c 45.9448,0 48.94082,0.107135 48.93833,1.75 -10e-4,0.9625 -3.15146,19.63581 -7,41.496244 C 847.14881,85.106678 844,103.46001 844,104.03143 c 0,2.34701 4.55541,-1.93057 28.41668,-26.683576 C 886.12085,63.131534 903.63691,45.0875 911.34125,37.25 L 925.34915,23 h 56.40876 c 33.91799,0 56.27589,0.36688 56.07539,0.920167 -0.1833,0.506092 -22.045,22.971411 -48.58149,49.92293 -36.49145,37.062153 -48.08982,49.415483 -47.59824,50.696493 0.35747,0.93156 14.34238,23.74754 31.07758,50.70218 16.7352,26.95464 30.66505,49.62714 30.95525,50.38333 0.444,1.15704 -8.90222,1.3749 -58.98317,1.3749 h -59.51074 l -22.74074,-37.25 c -12.5074,-20.4875 -23.46022,-37.82968 -24.33959,-38.53818 -1.33802,-1.07803 -1.72052,-0.99646 -2.34458,0.5 -0.41015,0.9835 -3.47287,17.53818 -6.80605,36.78818 -3.33318,19.25 -6.29343,35.7875 -6.57832,36.75 -0.48427,1.63609 -3.73682,1.75 -49.96965,1.75 H 722.9619 Z m 309.54091,1 c 0.018,-0.6875 5.541,-34.55 12.2738,-75.25 l 12.2415,-74 12.3955,-0.5 c 14.6292,-0.5901 16.1625,-1.736618 7.466,-5.582617 -14.7594,-6.527292 -22.0976,-16.433044 -19.452,-26.257935 2.3423,-8.698673 13.9915,-17.055007 29.7424,-21.335142 11.1178,-3.021125 34.4164,-3.040313 45.4546,-0.03743 13.9178,3.786246 24.3205,10.308388 28.0354,17.57712 2.4598,4.813197 2.6568,11.098837 0.4796,15.309043 -2.3239,4.493842 -9.6034,10.680456 -16.2113,13.777354 -11.0847,5.195011 -10.6569,6.510085 2.1255,6.534299 4.4459,0.0084 8.3028,0.234772 8.5711,0.503 0.2682,0.268228 -5.0401,33.680738 -11.7961,74.250008 -6.7561,40.56927 -12.3006,74.32481 -12.3211,75.01231 -0.029,0.98266 -10.6237,1.25 -49.5372,1.25 -38.9506,0 -49.4931,-0.2664 -49.4677,-1.25 z M 189.6744,127.34107 C 189.30348,126.97015 189,126.29167 189,125.83333 189,125.375 216.4875,125 250.08333,125 c 48.42217,0 60.99699,0.2591 60.66677,1.25 -0.32579,0.97763 -13.48868,1.30616 -60.40893,1.50774 -32.9958,0.14175 -60.29584,-0.0457 -60.66677,-0.41667 z m 74.02109,-20.33213 C 256.18492,61.2543 223.22268,24.670756 179,13.008613 165.96373,9.5707655 143.93764,9.1062809 130.00778,11.975468 88.123346,20.602571 53.19721,53.901792 42.599547,95.312091 41.285984,100.44483 41.230539,100.5 37.385932,100.5 c -3.571771,0 -3.857603,-0.20211 -3.535519,-2.5 0.643842,-4.593454 5.32093,-18.41686 8.775621,-25.936858 C 50.86362,54.131981 67.488894,34.133519 83.169654,23.293418 96.775656,13.887596 113.05587,6.8298688 128,3.8587639 c 3.575,-0.7107607 6.81199,-1.7425324 7.19331,-2.2928259 1.041,-1.50227361 33.07462,-1.26215305 33.57924,0.2517063 0.21676,0.6502956 1.36912,1.1834907 2.56078,1.1848779 4.62915,0.00539 21.54086,5.2843472 30.45162,9.5054178 13.12494,6.217342 22.26992,12.546041 32.78407,22.687918 19.83133,19.129161 32.23804,42.715696 36.91795,70.185132 C 273.54055,117.4348 273.62733,117 269.16776,117 h -3.83225 z M 1198.7027,69.618518 c -9.9772,-3.718817 -16.8718,-11.941992 -18.2178,-21.728316 -1.4029,-10.200179 5.2099,-22.143583 14.8421,-26.806448 4.925,-2.384147 13.632,-2.775549 19.9088,-0.894956 5.0694,1.518826 13.3028,8.89319 14.9188,13.362282 0.686,1.896906 1.5493,3.44892 1.9185,3.44892 0.3692,0 0.9591,1.8 1.3109,4 0.7187,4.494496 -0.2238,12.217012 -1.4022,11.488734 -0.4227,-0.261202 -1.0286,0.561775 -1.3467,1.828838 -2.7804,11.07812 -20.4923,19.565045 -31.9324,15.300946 z m 13.3318,-1.611602 c 18.6982,-5.194575 24.6398,-28.427768 10.455,-40.882012 C 1217.3332,22.597617 1213.1625,21 1206.5,21 c -6.6835,0 -11.8386,1.988087 -16.3376,6.300681 -10.1545,9.733689 -10.4715,24.053155 -0.7537,34.051979 6.2178,6.397632 14.6369,8.873682 22.6258,6.654256 z m -15.5982,-11.312385 c -0.2756,-0.718008 -0.3739,-6.905508 -0.2186,-13.75 L 1196.5,30.5 l 8.7472,0.025 c 7.6224,0.02178 9.0262,0.303974 10.9167,2.194445 3.118,3.118027 2.8905,8.028097 -0.4972,10.729359 -3.1951,2.547626 -3.2659,3.456335 -0.6667,8.551197 2.5709,5.039327 2.5205,6.213018 -0.25,5.819551 -1.489,-0.211469 -2.9265,-1.711793 -4.25,-4.435803 C 1207.8628,47.956137 1206.1367,46 1203.9845,46 1201.7673,46 1201,47.949242 1201,53.581787 1201,57.356087 1200.7039,58 1198.9686,58 c -1.1172,0 -2.2568,-0.587461 -2.5323,-1.305469 z m 14.3412,-14.251235 c 2.9148,-2.041635 3.0192,-6.946536 0.1802,-8.465954 -1.1233,-0.601163 -3.7108,-0.954496 -5.75,-0.785183 -3.5114,0.291543 -3.7244,0.510066 -4.0222,4.127629 -0.173,2.100883 0.2196,4.463383 0.8724,5.25 1.5641,1.884636 5.9389,1.821173 8.7196,-0.126492 z"
       id="path18"
       inkscape:connector-curvature="0" />
    <path
       style="fill:#36456e"
       d="m 401,226.45333 c 0,-0.30067 5.86229,-33.26317 13.0273,-73.25 C 421.19232,113.2165 426.92982,79.375 426.7773,78 L 426.5,75.5 394.75,75.235953 C 377.2875,75.090727 363,74.663009 363,74.285469 363,71.157319 372.4934,20.213854 373.25595,19.25 374.0365,18.263401 397.7145,18 485.62244,18 H 597 l -0.0442,2.75 c -0.0243,1.5125 -2.18973,14.225 -4.81203,28.25 l -4.76783,25.5 -29.6062,0.5 c -16.28342,0.275 -29.88318,0.777677 -30.22169,1.117059 C 527.07219,76.594118 500,224.38504 500,226.50568 500,226.77755 477.725,227 450.5,227 423.275,227 401,226.754 401,226.45333 Z m 192,-1.03207 c 0,-0.87868 5.4,-34.38685 12,-74.46262 6.6,-40.07576 12,-73.32264 12,-73.881953 0,-0.620999 4.93225,-1.125901 12.6682,-1.29681 8.77507,-0.193866 12.79109,-0.649946 13.06807,-1.484076 0.22981,-0.692093 -2.71226,-2.690862 -6.9182,-4.700042 C 626.56818,65.177082 621.74175,61.163703 619.08979,55.685486 614.02311,45.219112 619.35328,35.393643 634.14976,27.9244 667.47381,11.102474 723,23.750209 723,48.162674 c 0,2.715155 -0.64587,6.185617 -1.43526,7.712137 -2.35084,4.546011 -9.3873,10.173341 -17.28151,13.820693 -4.23161,1.955123 -7.241,3.934319 -7.01581,4.6141 0.25707,0.775971 3.5865,1.290495 9.56347,1.477922 L 716,76.075052 715.9108,78.787526 C 715.86173,80.279387 710.34923,114.125 703.6608,154 L 691.5,226.5 642.25,226.75942 C 597.69353,226.99412 593,226.8666 593,225.42126 Z M 723.49139,224.75 c 0.29122,-1.2375 8.42896,-47.45266 18.08386,-102.70035 C 751.23014,66.801963 759.352,21.239463 759.62382,20.799654 759.89564,20.359844 782.14148,20 809.05902,20 854.2357,20 858,20.129282 858,21.680842 c 0,0.924463 -3.22007,20.161963 -7.15572,42.75 L 843.68856,105.5 833.26965,116.17629 c -11.91735,12.21175 -11.61172,9.44889 -2.65808,24.02857 l 5.3458,8.70486 -6.46028,36.79514 c -3.55316,20.23733 -6.70214,37.80764 -6.99774,39.04514 L 821.9619,227 h -49.5 -49.5 z m 309.54091,1 c 0.018,-0.6875 5.541,-34.55 12.2738,-75.25 l 12.2415,-74 12.3955,-0.5 c 14.6292,-0.5901 16.1625,-1.736618 7.466,-5.582617 -14.7594,-6.527292 -22.0976,-16.433044 -19.452,-26.257935 2.3423,-8.698673 13.9915,-17.055007 29.7424,-21.335142 11.1178,-3.021125 34.4164,-3.040313 45.4546,-0.03743 13.9178,3.786246 24.3205,10.308388 28.0354,17.57712 2.4598,4.813197 2.6568,11.098837 0.4796,15.309043 -2.3239,4.493842 -9.6034,10.680456 -16.2113,13.777354 -11.0847,5.195011 -10.6569,6.510085 2.1255,6.534299 4.4459,0.0084 8.3028,0.234772 8.5711,0.503 0.2682,0.268228 -5.0401,33.680738 -11.7961,74.250008 -6.7561,40.56927 -12.3006,74.32481 -12.3211,75.01231 -0.029,0.98266 -10.6237,1.25 -49.5372,1.25 -38.9506,0 -49.4931,-0.2664 -49.4677,-1.25 z"
       id="path16"
       inkscape:connector-curvature="0" />
    <path
       style="fill:#2a3a66"
       d="M 402.39451,223.25 C 405.10623,209.77534 428,79.675538 428,77.740174 428,76.350766 427.2882,74.940833 426.41821,74.606989 425.54823,74.273145 411.14823,74 394.41821,74 377.6882,74 364,73.696153 364,73.324785 364,72.057377 373.03719,21.504039 373.48793,20.25 373.8437,19.260203 397.0498,19 484.96862,19 c 105.06784,0 111.03274,0.09399 111.05674,1.75 0.014,0.9625 -2.09797,13.3375 -4.69315,27.5 L 586.6137,74 h -29.18441 c -22.98178,0 -29.41769,0.281091 -30.28205,1.322584 -0.6037,0.727421 -6.95891,33.914926 -14.12267,73.749996 -7.16376,39.83508 -13.25849,73.43992 -13.54385,74.67742 L 498.9619,226 h -48.56041 -48.5604 z M 594,224.54683 c 0,-0.79924 5.4,-34.15767 12,-74.12985 6.6,-39.97217 12,-72.830181 12,-73.017802 0,-0.18762 5.9625,-0.466689 13.25,-0.620153 12.23041,-0.257554 13.25,-0.424538 13.25,-2.170039 0,-2.077599 -0.41711,-2.364124 -8.67515,-5.95918 -6.64119,-2.891178 -14.54742,-9.787188 -16.47247,-14.367687 -3.99758,-9.511924 1.42251,-18.579817 15.30898,-25.612172 23.47831,-11.889834 63.15043,-9.150579 79.80619,5.510405 5.71424,5.029871 7.86056,9.069129 7.77643,14.634751 -0.12325,8.152742 -6.10167,14.477112 -19.56567,20.69786 C 691.17535,74.827661 692.30793,77 706.58179,77 713.27819,77 715,77.297283 715,78.453465 c 0,0.799406 -5.4,33.932705 -12,73.629545 -6.6,39.69685 -12,72.56779 -12,73.04654 C 691,225.61152 669.35451,226 642.5,226 600.75022,226 594,225.79775 594,224.54683 Z M 724.58175,224.25 c 0.21697,-0.9625 7.83805,-44.5 16.93572,-96.75 9.09768,-52.25 17.03657,-97.5875 17.64198,-100.75 L 760.26021,21 h 48.3699 C 852.49597,21 857,21.15043 857,22.615507 c 0,0.88853 -3.17899,19.67603 -7.06443,41.75 L 842.87114,104.5 832.43557,115.01633 C 826.69601,120.80031 822,126.33067 822,127.30601 c 0,0.97534 2.89486,6.59299 6.43302,12.48367 l 6.43301,10.71032 -6.68301,37.74779 -6.68302,37.74779 -48.65638,0.002 c -45.82368,0.002 -48.63341,-0.0997 -48.26187,-1.74779 z M 1034,225.41183 c 0,-0.32349 5.4,-33.37742 12,-73.45319 6.6,-40.07576 12,-73.323024 12,-73.882805 0,-0.625131 5.1117,-1.12543 13.25,-1.29681 12.585,-0.265021 13.265,-0.38419 13.5493,-2.374346 0.2412,-1.689061 -0.6313,-2.440096 -4.5,-3.873524 -5.9738,-2.213371 -13.0079,-6.573596 -16.5198,-10.240112 -12.6398,-13.19615 -2.265,-29.024345 23.9213,-36.495281 11.2854,-3.219722 34.3177,-3.218318 45.6085,0.0028 20.1686,5.753791 31.7077,16.997191 28.7432,28.006546 -1.9436,7.217788 -9.8745,14.230641 -21.0496,18.612924 -5.0704,1.988339 -6.3781,3.424937 -4.8233,5.29845 0.7288,0.878077 4.0336,1.283538 10.4619,1.283538 9.2315,0 9.3875,0.03955 8.8786,2.25 -0.285,1.2375 -5.6985,33.525 -12.0302,71.75 -6.3317,38.225 -11.7679,70.7375 -12.0805,72.25 l -0.5683,2.75 h -48.4206 C 1055.7892,226 1034,225.73532 1034,225.41183 Z"
       id="path14"
       inkscape:connector-curvature="0" />
  </g>
</svg>
